<?xml version="1.0" encoding="UTF-8"?>
<svg width="200" height="200" version="1.1" viewBox="0 0 700 700" xmlns="http://www.w3.org/2000/svg" xmlns:xlink="http://www.w3.org/1999/xlink">
 <defs>
  <symbol id="y" overflow="visible">
   <path d="m0.48438-0.03125c-0.023437 0.011719-0.046875 0.023438-0.078125 0.03125s-0.0625 0.015625-0.09375 0.015625c-0.085938 0-0.15234-0.023438-0.20312-0.078125-0.054688-0.050781-0.078125-0.11719-0.078125-0.20312 0-0.082031 0.023438-0.14844 0.078125-0.20312 0.050781-0.050781 0.11719-0.078125 0.20312-0.078125 0.03125 0 0.0625 0.007813 0.09375 0.015625 0.03125 0.011719 0.054688 0.023438 0.078125 0.03125v0.10938c-0.023437-0.019531-0.046875-0.03125-0.078125-0.03125-0.023438-0.007813-0.046875-0.015625-0.078125-0.015625-0.042969 0-0.078125 0.015625-0.10938 0.046875-0.023438 0.03125-0.03125 0.074219-0.03125 0.125 0 0.054687 0.007812 0.09375 0.03125 0.125 0.03125 0.03125 0.066406 0.046875 0.10938 0.046875h0.078125c0.03125-0.007812 0.054688-0.023438 0.078125-0.046875z"/>
  </symbol>
  <symbol id="a" overflow="visible">
   <path d="m0.34375-0.28125c0-0.007812-0.007812-0.015625-0.015625-0.015625-0.011719-0.007813-0.023437-0.015625-0.03125-0.015625-0.042969 0-0.074219 0.015625-0.09375 0.046875-0.011719 0.023437-0.015625 0.046875-0.015625 0.078125v0.1875h-0.125v-0.39062h0.125v0.0625c0.019531-0.03125 0.035156-0.050781 0.046875-0.0625 0.019531-0.007813 0.046875-0.015625 0.078125-0.015625h0.015625 0.015625z"/>
  </symbol>
  <symbol id="c" overflow="visible">
   <path d="m0.45312-0.20312v0.046875h-0.29688c0.007812 0.03125 0.019531 0.054688 0.03125 0.0625 0.019531 0.011719 0.046875 0.015625 0.078125 0.015625s0.054687-0.0039062 0.078125-0.015625c0.03125-0.007812 0.0625-0.019531 0.09375-0.03125v0.10938c-0.03125 0-0.0625 0.0078125-0.09375 0.015625-0.023438 0.0078125-0.046875 0.015625-0.078125 0.015625-0.085937 0-0.14844-0.019531-0.1875-0.0625-0.03125-0.039062-0.046875-0.085937-0.046875-0.14062 0-0.070312 0.015625-0.125 0.046875-0.15625 0.039063-0.039062 0.097656-0.0625 0.17188-0.0625 0.0625 0 0.10938 0.023438 0.14062 0.0625 0.039063 0.03125 0.0625 0.078125 0.0625 0.14062zm-0.125-0.03125c0-0.03125-0.011719-0.050781-0.03125-0.0625-0.011719-0.007813-0.027344-0.015625-0.046875-0.015625-0.023438 0-0.042969 0.007812-0.0625 0.015625-0.011719 0.011719-0.023438 0.03125-0.03125 0.0625z"/>
  </symbol>
  <symbol id="e" overflow="visible">
   <path d="m0.23438-0.1875c-0.023437 0-0.042969 0.011719-0.0625 0.03125-0.011719 0.011719-0.015625 0.023438-0.015625 0.03125 0 0.011719 0.003906 0.023438 0.015625 0.03125 0.007813 0.011719 0.023437 0.015625 0.046875 0.015625 0.03125 0 0.050781-0.0039062 0.0625-0.015625 0.019531-0.019531 0.03125-0.039062 0.03125-0.0625v-0.03125zm0.1875-0.03125v0.21875h-0.10938v-0.0625c-0.023438 0.03125-0.042969 0.054688-0.0625 0.0625-0.023438 0.0078125-0.046875 0.015625-0.078125 0.015625-0.042969 0-0.078125-0.011719-0.10938-0.03125-0.023438-0.03125-0.03125-0.066406-0.03125-0.10938 0-0.039062 0.015625-0.070312 0.046875-0.09375 0.03125-0.019531 0.078125-0.03125 0.14062-0.03125h0.09375v-0.015625c0-0.019531-0.011719-0.03125-0.03125-0.03125-0.011719-0.007813-0.039062-0.015625-0.078125-0.015625h-0.078125c-0.023438 0-0.042969 0.007812-0.0625 0.015625v-0.09375h0.078125c0.03125-0.007813 0.054687-0.015625 0.078125-0.015625 0.082031 0 0.13281 0.015625 0.15625 0.046875 0.03125 0.03125 0.046875 0.078125 0.046875 0.14062z"/>
  </symbol>
  <symbol id="b" overflow="visible">
   <path d="m0.20312-0.51562v0.125h0.125v0.078125h-0.125v0.17188 0.046875h0.046875 0.0625v0.09375h-0.09375c-0.054688 0-0.09375-0.0078125-0.125-0.03125-0.023438-0.019531-0.03125-0.054688-0.03125-0.10938v-0.17188h-0.046875v-0.078125h0.046875v-0.125z"/>
  </symbol>
  <symbol id="j" overflow="visible">
   <path d="m0.32812-0.34375v-0.20312h0.125v0.54688h-0.125v-0.0625c-0.011719 0.03125-0.03125 0.054688-0.0625 0.0625-0.023437 0.0078125-0.042969 0.015625-0.0625 0.015625-0.054687 0-0.09375-0.019531-0.125-0.0625-0.03125-0.039062-0.046875-0.085937-0.046875-0.14062 0-0.070312 0.015625-0.125 0.046875-0.15625 0.03125-0.039062 0.070313-0.0625 0.125-0.0625 0.019531 0 0.039063 0.007812 0.0625 0.015625 0.03125 0.011719 0.050781 0.027344 0.0625 0.046875zm-0.078125 0.26562c0.019531 0 0.035156-0.0078125 0.046875-0.03125 0.019531-0.019531 0.03125-0.046875 0.03125-0.078125 0-0.039062-0.011719-0.070312-0.03125-0.09375-0.011719-0.019531-0.027344-0.03125-0.046875-0.03125-0.03125 0-0.058594 0.011719-0.078125 0.03125-0.011719 0.023438-0.015625 0.054688-0.015625 0.09375 0 0.03125 0.003906 0.058594 0.015625 0.078125 0.019531 0.023438 0.046875 0.03125 0.078125 0.03125z"/>
  </symbol>
  <symbol id="i" overflow="visible">
   <path d="m0.26562-0.078125c0.03125 0 0.050781-0.0078125 0.0625-0.03125 0.007813-0.019531 0.015625-0.046875 0.015625-0.078125 0-0.039062-0.007812-0.070312-0.015625-0.09375-0.011719-0.019531-0.03125-0.03125-0.0625-0.03125s-0.054687 0.011719-0.0625 0.03125c-0.011719 0.023438-0.015625 0.054688-0.015625 0.09375 0 0.03125 0.003906 0.058594 0.015625 0.078125 0.007813 0.023438 0.03125 0.03125 0.0625 0.03125zm-0.078125-0.26562c0.019531-0.019531 0.039062-0.035156 0.0625-0.046875 0.019531-0.007813 0.039062-0.015625 0.0625-0.015625 0.050781 0 0.09375 0.023438 0.125 0.0625 0.03125 0.03125 0.046875 0.085938 0.046875 0.15625 0 0.054688-0.015625 0.10156-0.046875 0.14062-0.03125 0.042969-0.074219 0.0625-0.125 0.0625-0.023438 0-0.042969-0.0078125-0.0625-0.015625-0.023438-0.0078125-0.042969-0.03125-0.0625-0.0625v0.0625h-0.125v-0.54688h0.125z"/>
  </symbol>
  <symbol id="h" overflow="visible">
   <path d="m0.015625-0.39062h0.125l0.09375 0.26562 0.09375-0.26562h0.14062l-0.17188 0.42188c-0.023437 0.050781-0.042969 0.082031-0.0625 0.09375-0.023437 0.019531-0.054687 0.03125-0.09375 0.03125h-0.078125v-0.09375h0.046875 0.046875c0.007812 0 0.019531-0.015625 0.03125-0.046875z"/>
  </symbol>
  <symbol id="g" overflow="visible">
   <path d="m0.54688-0.03125c-0.042969 0.011719-0.078125 0.023438-0.10938 0.03125s-0.074219 0.015625-0.125 0.015625c-0.085938 0-0.15234-0.023438-0.20312-0.078125-0.054688-0.050781-0.078125-0.11719-0.078125-0.20312 0-0.082031 0.023438-0.14844 0.078125-0.20312 0.050781-0.050781 0.125-0.078125 0.21875-0.078125 0.039063 0 0.070313 0.007813 0.09375 0.015625 0.03125 0.011719 0.0625 0.023438 0.09375 0.03125v0.10938c-0.03125-0.019531-0.0625-0.03125-0.09375-0.03125-0.023437-0.007813-0.046875-0.015625-0.078125-0.015625-0.054688 0-0.09375 0.015625-0.125 0.046875-0.023438 0.03125-0.03125 0.074219-0.03125 0.125 0 0.054687 0.007812 0.09375 0.03125 0.125 0.03125 0.03125 0.070312 0.046875 0.125 0.046875h0.03125c0.007812 0 0.019531-0.0039062 0.03125-0.015625v-0.09375h-0.078125v-0.09375h0.21875z"/>
  </symbol>
  <symbol id="x" overflow="visible">
   <path d="m0.1875-0.0625v0.20312h-0.125v-0.53125h0.125v0.046875c0.019531-0.019531 0.039062-0.035156 0.0625-0.046875 0.019531-0.007813 0.039062-0.015625 0.0625-0.015625 0.050781 0 0.09375 0.023438 0.125 0.0625 0.03125 0.03125 0.046875 0.085938 0.046875 0.15625 0 0.054688-0.015625 0.10156-0.046875 0.14062-0.03125 0.042969-0.074219 0.0625-0.125 0.0625-0.023438 0-0.042969-0.0078125-0.0625-0.015625-0.023438-0.0078125-0.042969-0.03125-0.0625-0.0625zm0.078125-0.25c-0.03125 0-0.054687 0.011719-0.0625 0.03125-0.011719 0.023438-0.015625 0.054688-0.015625 0.09375 0 0.03125 0.003906 0.058594 0.015625 0.078125 0.007813 0.023438 0.03125 0.03125 0.0625 0.03125s0.050781-0.0078125 0.0625-0.03125c0.007813-0.019531 0.015625-0.046875 0.015625-0.078125 0-0.039062-0.007812-0.070312-0.015625-0.09375-0.011719-0.019531-0.03125-0.03125-0.0625-0.03125z"/>
  </symbol>
  <symbol id="f" overflow="visible">
   <path d="m0.46875-0.23438v0.23438h-0.14062v-0.1875-0.0625c0-0.007812-0.007813-0.019531-0.015625-0.03125 0-0.007812-0.007812-0.015625-0.015625-0.015625 0-0.007813-0.011719-0.015625-0.03125-0.015625-0.023437 0-0.042969 0.011719-0.0625 0.03125-0.011719 0.023438-0.015625 0.054688-0.015625 0.09375v0.1875h-0.125v-0.54688h0.125v0.20312c0.019531-0.019531 0.039062-0.035156 0.0625-0.046875 0.019531-0.007813 0.039062-0.015625 0.0625-0.015625 0.050781 0 0.085938 0.015625 0.10938 0.046875 0.03125 0.03125 0.046875 0.074219 0.046875 0.125z"/>
  </symbol>
  <symbol id="w" overflow="visible">
   <path d="m0.0625-0.39062h0.125v0.39062h-0.125zm0-0.15625h0.125v0.09375h-0.125z"/>
  </symbol>
  <symbol id="v" overflow="visible">
   <path d="m0.15625-0.20312-0.14062-0.1875h0.125l0.09375 0.10938 0.078125-0.10938h0.14062l-0.14062 0.1875 0.14062 0.20312h-0.14062l-0.078125-0.125-0.09375 0.125h-0.125z"/>
  </symbol>
  <symbol id="u" overflow="visible">
   <path d="m0.375-0.39062v0.10938c-0.03125-0.019531-0.0625-0.03125-0.09375-0.03125h-0.0625-0.0625c-0.011719 0-0.015625 0.011719-0.015625 0.03125 0 0.011719 0.003906 0.023438 0.015625 0.03125h0.0625 0.015625c0.0625 0.011719 0.10156 0.027344 0.125 0.046875 0.019531 0.011719 0.03125 0.042969 0.03125 0.09375 0 0.03125-0.015625 0.0625-0.046875 0.09375-0.023438 0.019531-0.0625 0.03125-0.125 0.03125-0.03125 0-0.0625-0.0078125-0.09375-0.015625-0.023438 0-0.046875-0.0039062-0.078125-0.015625v-0.09375c0.019531 0.011719 0.039062 0.023438 0.0625 0.03125h0.09375 0.046875c0.007812-0.0078125 0.015625-0.019531 0.015625-0.03125 0-0.019531-0.007813-0.03125-0.015625-0.03125 0 0-0.011719-0.003906-0.03125-0.015625h-0.03125c-0.054688-0.007812-0.09375-0.019531-0.125-0.03125-0.023438-0.019531-0.03125-0.050781-0.03125-0.09375 0-0.039062 0.015625-0.070312 0.046875-0.09375 0.03125-0.019531 0.078125-0.03125 0.14062-0.03125 0.019531 0 0.039062 0.007812 0.0625 0.015625h0.09375z"/>
  </symbol>
  <symbol id="t" overflow="visible">
   <path d="m0.35938 0.10938v0.0625h-0.35938v-0.0625z"/>
  </symbol>
  <symbol id="s" overflow="visible">
   <path d="m0.39062-0.10938h-0.21875l-0.03125 0.10938h-0.14062l0.20312-0.53125h0.15625l0.1875 0.53125h-0.125zm-0.1875-0.078125h0.14062l-0.0625-0.21875z"/>
  </symbol>
  <symbol id="r" overflow="visible">
   <path d="m0.3125-0.54688v0.078125h-0.0625c-0.023438 0-0.039062 0.007812-0.046875 0.015625v0.03125 0.03125h0.10938v0.078125h-0.10938v0.3125h-0.125v-0.3125h-0.0625v-0.078125h0.0625v-0.03125c0-0.039063 0.0078125-0.070313 0.03125-0.09375 0.019531-0.019531 0.054687-0.03125 0.10938-0.03125z"/>
  </symbol>
  <symbol id="d" overflow="visible">
   <path d="m0.25-0.3125c-0.03125 0-0.058594 0.011719-0.078125 0.03125-0.011719 0.011719-0.015625 0.042969-0.015625 0.09375 0 0.03125 0.003906 0.058594 0.015625 0.078125 0.019531 0.023438 0.046875 0.03125 0.078125 0.03125s0.050781-0.0078125 0.0625-0.03125c0.019531-0.019531 0.03125-0.046875 0.03125-0.078125 0-0.050781-0.011719-0.082031-0.03125-0.09375-0.011719-0.019531-0.03125-0.03125-0.0625-0.03125zm0-0.09375c0.0625 0 0.11328 0.023438 0.15625 0.0625 0.039062 0.03125 0.0625 0.085938 0.0625 0.15625 0 0.054688-0.023438 0.10156-0.0625 0.14062-0.042969 0.042969-0.09375 0.0625-0.15625 0.0625-0.074219 0-0.13281-0.019531-0.17188-0.0625-0.03125-0.039062-0.046875-0.085937-0.046875-0.14062 0-0.070312 0.015625-0.125 0.046875-0.15625 0.039063-0.039062 0.097656-0.0625 0.17188-0.0625z"/>
  </symbol>
  <symbol id="q" overflow="visible">
   <path d="m0.42188-0.32812c0.019531-0.019531 0.039063-0.035156 0.0625-0.046875 0.019531-0.019531 0.039063-0.03125 0.0625-0.03125 0.050781 0 0.085937 0.015625 0.10938 0.046875 0.03125 0.03125 0.046875 0.074219 0.046875 0.125v0.23438h-0.14062v-0.20312-0.015625c0-0.03125-0.007812-0.050781-0.015625-0.0625 0-0.019531-0.011719-0.03125-0.03125-0.03125-0.023437 0-0.042969 0.011719-0.0625 0.03125-0.011719 0.023438-0.015625 0.054688-0.015625 0.09375v0.1875h-0.125v-0.20312c0-0.039063-0.007812-0.066406-0.015625-0.078125 0-0.019531-0.011719-0.03125-0.03125-0.03125-0.03125 0-0.054687 0.011719-0.0625 0.03125-0.011719 0.023438-0.015625 0.054688-0.015625 0.09375v0.1875h-0.125v-0.39062h0.125v0.046875l0.046875-0.046875c0.019531-0.007813 0.046875-0.015625 0.078125-0.015625 0.019531 0 0.039062 0.011719 0.0625 0.03125 0.019531 0.011719 0.035156 0.027344 0.046875 0.046875z"/>
  </symbol>
  <symbol id="p" overflow="visible">
   <path d="m0.0625-0.53125h0.15625l0.1875 0.35938v-0.35938h0.14062v0.53125h-0.15625l-0.20312-0.35938v0.35938h-0.125z"/>
  </symbol>
  <symbol id="o" overflow="visible">
   <path d="m0.0625-0.15625v-0.23438h0.125v0.03125 0.09375 0.046875 0.078125 0.03125c0.007812 0 0.015625 0.007813 0.015625 0.015625h0.046875c0.019531 0 0.035156-0.0039062 0.046875-0.015625 0.019531-0.019531 0.03125-0.050781 0.03125-0.09375v-0.1875h0.125v0.39062h-0.125v-0.0625c-0.023437 0.03125-0.042969 0.054688-0.0625 0.0625-0.023437 0.0078125-0.046875 0.015625-0.078125 0.015625-0.042969 0-0.074219-0.015625-0.09375-0.046875-0.023438-0.03125-0.03125-0.070312-0.03125-0.125z"/>
  </symbol>
  <symbol id="n" overflow="visible">
   <path d="m0.46875-0.23438v0.23438h-0.14062v-0.1875-0.0625c0-0.007812-0.007813-0.019531-0.015625-0.03125 0-0.007812-0.007812-0.015625-0.015625-0.015625 0-0.007813-0.011719-0.015625-0.03125-0.015625-0.023437 0-0.042969 0.011719-0.0625 0.03125-0.011719 0.023438-0.015625 0.054688-0.015625 0.09375v0.1875h-0.125v-0.39062h0.125v0.046875c0.019531-0.019531 0.039062-0.035156 0.0625-0.046875 0.019531-0.007813 0.039062-0.015625 0.0625-0.015625 0.050781 0 0.085938 0.015625 0.10938 0.046875 0.03125 0.03125 0.046875 0.074219 0.046875 0.125z"/>
  </symbol>
  <symbol id="m" overflow="visible">
   <path d="m0.0625-0.53125h0.23438c0.0625 0 0.10938 0.015625 0.14062 0.046875 0.039062 0.03125 0.0625 0.078125 0.0625 0.14062 0 0.054688-0.023438 0.09375-0.0625 0.125-0.03125 0.023438-0.078125 0.03125-0.14062 0.03125h-0.09375v0.1875h-0.14062zm0.14062 0.10938v0.14062h0.078125c0.019531 0 0.035156-0.003906 0.046875-0.015625 0.019531-0.007813 0.03125-0.023437 0.03125-0.046875 0-0.03125-0.011719-0.050781-0.03125-0.0625-0.011719-0.007812-0.027344-0.015625-0.046875-0.015625z"/>
  </symbol>
  <symbol id="l" overflow="visible">
   <path d="m0.0625-0.39062h0.125v0.375c0 0.050781-0.015625 0.09375-0.046875 0.125-0.023437 0.03125-0.058594 0.046875-0.10938 0.046875h-0.046875v-0.09375h0.015625c0.019531 0 0.035156-0.0078125 0.046875-0.015625 0.0078125 0 0.015625-0.023438 0.015625-0.0625zm0-0.15625h0.125v0.09375h-0.125z"/>
  </symbol>
  <symbol id="k" overflow="visible">
   <path d="m0.39062-0.39062v0.10938c-0.03125-0.007812-0.054687-0.015625-0.0625-0.015625-0.011719-0.007813-0.03125-0.015625-0.0625-0.015625s-0.058594 0.011719-0.078125 0.03125c-0.023438 0.023438-0.03125 0.054688-0.03125 0.09375 0 0.03125 0.007812 0.058594 0.03125 0.078125 0.019531 0.023438 0.046875 0.03125 0.078125 0.03125s0.050781-0.0039062 0.0625-0.015625c0.019531-0.007812 0.039063-0.015625 0.0625-0.015625v0.09375c-0.03125 0.011719-0.058594 0.015625-0.078125 0.015625-0.011719 0.0078125-0.027344 0.015625-0.046875 0.015625-0.085937 0-0.14844-0.019531-0.1875-0.0625-0.03125-0.039062-0.046875-0.085937-0.046875-0.14062 0-0.070312 0.015625-0.125 0.046875-0.15625 0.039063-0.039062 0.10156-0.0625 0.1875-0.0625 0.019531 0 0.035156 0.007812 0.046875 0.015625h0.078125z"/>
  </symbol>
 </defs>
 <g>
  <path d="m394.52 86.406h-89.039c-10.625 0-19.684-7.5859-21.551-18.035l-5.9766-33.391c-0.85547-4.7617 2.3164-9.3203 7.0781-10.176 4.7617-0.85547 9.3203 2.3164 10.176 7.0781l5.9766 33.391c0.375 2.0859 2.1836 3.5898 4.2969 3.5898h89.039c2.1133 0 3.9219-1.5039 4.2969-3.5898l5.9766-33.391c0.85547-4.7617 5.4141-7.9297 10.176-7.0781 4.7617 0.85547 7.9297 5.4141 7.0781 10.176l-5.9766 33.391c-1.8672 10.438-10.926 18.035-21.551 18.035z"/>
  <path d="m485.98 476.98h-271.97c-4.8477 0-8.7695-3.9219-8.7695-8.7695 0-4.8477 3.9219-8.7695 8.7695-8.7695h271.97c4.8477 0 8.7695 3.9219 8.7695 8.7695 0 4.8477-3.9219 8.7695-8.7695 8.7695z"/>
  <path d="m371.26 506.16h-42.535c-4.8477 0-8.7695-3.9219-8.7695-8.7695s3.9219-8.7695 8.7695-8.7695h42.535c4.8477 0 8.7695 3.9219 8.7695 8.7695s-3.9219 8.7695-8.7695 8.7695z"/>
  <path d="m460.96 535.34h-221.95c-18.629 0-33.766-15.152-33.766-33.766v-149.46c0-4.8477 3.9219-8.7695 8.7695-8.7695 4.8477 0 8.7695 3.9219 8.7695 8.7695v149.46c0 8.957 7.2812 16.238 16.238 16.238h221.95c8.957 0 16.238-7.2812 16.238-16.238v-443.14c0-8.957-7.2812-16.238-16.238-16.238h-221.96c-8.957 0-16.238 7.2812-16.238 16.238v135.31c0 4.8477-3.9219 8.7695-8.7695 8.7695-4.8477 0-8.7695-3.9219-8.7695-8.7695l-0.003907-135.31c0-18.629 15.152-33.766 33.766-33.766h221.95c18.629 0 33.781 15.152 33.781 33.766v443.14c0.011719 18.625-15.141 33.762-33.77 33.762z"/>
  <path d="m217.96 360.86h-9.5508c-6.6445 0-12.547-3.9805-15.039-10.133l-6.1523-15.141-15.051 6.3555c-6.1211 2.5898-13.098 1.2148-17.801-3.4727l-6.7578-6.7578c-4.6875-4.6875-6.0625-11.68-3.4727-17.801l6.3555-15.051-15.141-6.1523c-6.1523-2.5039-10.133-8.4102-10.133-15.039v-9.5508c0-6.6445 3.9805-12.547 10.133-15.039l15.141-6.1523-6.3555-15.051c-2.5781-6.1211-1.2148-13.098 3.4727-17.801l6.7578-6.7578c4.6875-4.6875 11.68-6.0625 17.801-3.4727l15.051 6.3555 6.1523-15.141c2.5039-6.1523 8.4102-10.133 15.039-10.133h9.5508c6.6445 0 12.547 3.9805 15.039 10.133l6.1523 15.141 15.051-6.3555c6.1211-2.5898 13.098-1.2148 17.801 3.4727l6.7578 6.7578c4.6875 4.6875 6.0625 11.68 3.4727 17.801l-6.3555 15.051 15.141 6.1523c6.1523 2.5039 10.133 8.4102 10.133 15.039v9.5508c0 6.6445-3.9805 12.547-10.133 15.039l-15.141 6.1523 6.3555 15.051c2.5781 6.1211 1.2148 13.098-3.4727 17.801l-6.7578 6.7578c-4.6875 4.6875-11.68 6.0625-17.801 3.4727l-15.051-6.3555-6.1523 15.141c-2.4922 6.168-8.3945 10.133-15.039 10.133zm-8.6836-17.527h7.8008l6.3086-15.543c3.4141-8.3945 13.012-12.375 21.363-8.8438l15.457 6.5273 5.5156-5.5156-6.5273-15.457c-3.5312-8.3516 0.44922-17.945 8.8438-21.363l15.543-6.3086v-7.8008l-15.543-6.3086c-8.3945-3.4141-12.375-13.012-8.8438-21.363l6.5273-15.457-5.5156-5.5156-15.457 6.5273c-8.3516 3.5312-17.945-0.44922-21.363-8.8438l-6.3086-15.543h-7.8008l-6.3086 15.543c-3.4141 8.3945-13.012 12.375-21.363 8.8438l-15.457-6.5273-5.5156 5.5156 6.5273 15.457c1.707 4.0391 1.7227 8.4805 0.042969 12.535-1.6797 4.0508-4.8359 7.1797-8.8867 8.8281l-15.543 6.3086v7.8008l15.543 6.3086c8.3945 3.4141 12.375 13.012 8.8438 21.363l-6.5273 15.441 5.5156 5.5156 15.457-6.5273c8.3516-3.5312 17.945 0.44922 21.363 8.8438z"/>
  <path d="m213.18 308.21c-19.453 0-35.285-15.82-35.285-35.27 0-19.453 15.82-35.285 35.285-35.285s35.285 15.82 35.285 35.285c-0.011719 19.438-15.832 35.27-35.285 35.27zm0-53.027c-9.7852 0-17.746 7.9609-17.746 17.746 0 9.7852 7.9609 17.746 17.746 17.746s17.746-7.9609 17.746-17.746c0-9.7891-7.9609-17.746-17.746-17.746z"/>
  <path d="m379.23 435.36c-3.5039-3.3438-3.6328-8.8867-0.28906-12.391l11.68-12.246-11.68-12.246c-3.3438-3.5039-3.2148-9.0586 0.28906-12.391 3.5039-3.3438 9.0586-3.2148 12.391 0.28906l17.441 18.293c3.2266 3.3867 3.2266 8.7148 0 12.102l-17.441 18.301c-3.3438 3.5039-8.8867 3.6328-12.391 0.28906z"/>
  <path d="m308.36 435.07-17.441-18.293c-3.2266-3.3867-3.2266-8.7148 0-12.102l17.441-18.293c3.3438-3.5039 8.8867-3.6328 12.391-0.28906s3.6328 8.8867 0.28906 12.391l-11.68 12.246 11.68 12.246c3.3438 3.5039 3.2148 9.0586-0.28906 12.391-3.4883 3.3203-9.0312 3.207-12.391-0.29688z"/>
  <path d="m339.43 441.26c-4.5742-1.5781-7.0039-6.5703-5.4141-11.16l15.398-44.52c1.5781-4.5742 6.5703-7.0039 11.16-5.4141 4.5742 1.5781 7.0039 6.5703 5.4141 11.16l-15.398 44.52c-1.5938 4.5742-6.5859 7.0039-11.16 5.4141z"/>
  <path d="m443.95 121.63h-187.89c-4.8477 0-8.7695-3.9219-8.7695-8.7695 0-4.8477 3.9219-8.7695 8.7695-8.7695h187.89c4.8477 0 8.7695 3.9219 8.7695 8.7695-0.011719 4.8477-3.9336 8.7695-8.7695 8.7695z"/>
  <path d="m443.95 169.39h-187.89c-4.8477 0-8.7695-3.9219-8.7695-8.7695s3.9219-8.7695 8.7695-8.7695h187.89c4.8477 0 8.7695 3.9219 8.7695 8.7695-0.011719 4.832-3.9336 8.7695-8.7695 8.7695z"/>
  <path d="m443.95 217.14h-123.54c-4.8477 0-8.7695-3.9219-8.7695-8.7695s3.9219-8.7695 8.7695-8.7695h123.54c4.8477 0 8.7695 3.9219 8.7695 8.7695 0.003906 4.8477-3.9336 8.7695-8.7695 8.7695z"/>
  <path d="m443.95 264.91h-123.54c-4.8477 0-8.7695-3.9219-8.7695-8.7695 0-4.8477 3.9219-8.7695 8.7695-8.7695h123.54c4.8477 0 8.7695 3.9219 8.7695 8.7695-0.011719 4.8438-3.9336 8.7695-8.7695 8.7695z"/>
  <path d="m443.95 312.67h-123.54c-4.8477 0-8.7695-3.9219-8.7695-8.7695 0-4.8477 3.9219-8.7695 8.7695-8.7695h123.54c4.8477 0 8.7695 3.9219 8.7695 8.7695 0.003906 4.8438-3.9336 8.7695-8.7695 8.7695z"/>
  <path d="m443.95 360.41h-129.23c-4.8477 0-8.7695-3.9219-8.7695-8.7695 0-4.8477 3.9219-8.7695 8.7695-8.7695h129.23c4.8477 0 8.7695 3.9219 8.7695 8.7695 0.003906 4.8477-3.9336 8.7695-8.7695 8.7695z"/>
 </g>
</svg>
