<?xml version="1.0" encoding="UTF-8"?>
<svg width="200" height="200" version="1.1" viewBox="0 0 700 700" xmlns="http://www.w3.org/2000/svg" xmlns:xlink="http://www.w3.org/1999/xlink">
 <defs>
  <symbol id="w" overflow="visible">
   <path d="m17.047-1.0156c-0.875 0.46094-1.793 0.80469-2.75 1.0312-0.94922 0.22656-1.9375 0.34375-2.9688 0.34375-3.0938 0-5.5469-0.86328-7.3594-2.5938-1.8047-1.7266-2.7031-4.0703-2.7031-7.0312 0-2.957 0.89844-5.3008 2.7031-7.0312 1.8125-1.7266 4.2656-2.5938 7.3594-2.5938 1.0312 0 2.0195 0.12109 2.9688 0.35938 0.95703 0.23047 1.875 0.57031 2.75 1.0156v3.8438c-0.88672-0.60156-1.7617-1.0469-2.625-1.3281-0.85547-0.28125-1.7617-0.42188-2.7188-0.42188-1.7109 0-3.0547 0.54688-4.0312 1.6406-0.96875 1.0938-1.4531 2.6016-1.4531 4.5156 0 1.918 0.48438 3.4219 1.4531 4.5156 0.97656 1.0938 2.3203 1.6406 4.0312 1.6406 0.95703 0 1.8633-0.14062 2.7188-0.42188 0.86328-0.28125 1.7383-0.72266 2.625-1.3281z"/>
  </symbol>
  <symbol id="b" overflow="visible">
   <path d="m12.484-10.125c-0.39844-0.1875-0.78906-0.32031-1.1719-0.40625-0.38672-0.082031-0.77344-0.125-1.1562-0.125-1.1484 0-2.0273 0.36719-2.6406 1.0938-0.61719 0.73047-0.92188 1.7812-0.92188 3.1562v6.4062h-4.4531v-13.922h4.4531v2.2812c0.5625-0.90625 1.2109-1.5664 1.9531-1.9844 0.75-0.41406 1.6406-0.625 2.6719-0.625 0.15625 0 0.31641 0.007812 0.48438 0.015625 0.17578 0.011719 0.42969 0.039063 0.76562 0.078125z"/>
  </symbol>
  <symbol id="a" overflow="visible">
   <path d="m16.031-7v1.2656h-10.406c0.11328 1.0547 0.49219 1.8398 1.1406 2.3594 0.64453 0.52344 1.5469 0.78125 2.7031 0.78125 0.9375 0 1.8945-0.14062 2.875-0.42188 0.97656-0.28125 1.9883-0.70312 3.0312-1.2656v3.4375c-1.0547 0.39844-2.1055 0.69531-3.1562 0.89062-1.0547 0.20703-2.1055 0.3125-3.1562 0.3125-2.5234 0-4.4805-0.64062-5.875-1.9219-1.3984-1.2812-2.0938-3.0781-2.0938-5.3906 0-2.2695 0.67969-4.0508 2.0469-5.3438 1.375-1.3008 3.2656-1.9531 5.6719-1.9531 2.1875 0 3.9375 0.66406 5.25 1.9844 1.3125 1.3125 1.9688 3.0703 1.9688 5.2656zm-4.5781-1.4688c0-0.85156-0.24609-1.5352-0.73438-2.0469-0.49219-0.51953-1.1367-0.78125-1.9375-0.78125-0.85547 0-1.5547 0.24609-2.0938 0.73438-0.54297 0.48047-0.875 1.1797-1 2.0938z"/>
  </symbol>
  <symbol id="e" overflow="visible">
   <path d="m8.375-6.2656c-0.92969 0-1.625 0.16406-2.0938 0.48438-0.46875 0.3125-0.70312 0.77344-0.70312 1.375 0 0.57422 0.1875 1.0234 0.5625 1.3438 0.38281 0.3125 0.91016 0.46875 1.5781 0.46875 0.83203 0 1.5352-0.30078 2.1094-0.90625 0.57031-0.60156 0.85938-1.3516 0.85938-2.25v-0.51562zm6.7969-1.6719v7.9375h-4.4844v-2.0625c-0.59375 0.84375-1.2656 1.4609-2.0156 1.8438-0.74219 0.38281-1.6484 0.57812-2.7188 0.57812-1.4375 0-2.6094-0.41406-3.5156-1.25-0.89844-0.84375-1.3438-1.9375-1.3438-3.2812 0-1.6328 0.5625-2.832 1.6875-3.5938 1.125-0.75781 2.8828-1.1406 5.2812-1.1406h2.625v-0.35938c0-0.69531-0.28125-1.207-0.84375-1.5312-0.55469-0.33203-1.4141-0.5-2.5781-0.5-0.96094 0-1.8516 0.10156-2.6719 0.29688-0.8125 0.1875-1.5742 0.46875-2.2812 0.84375v-3.3906c0.94531-0.22656 1.8984-0.39844 2.8594-0.51562 0.96875-0.125 1.9297-0.1875 2.8906-0.1875 2.5078 0 4.3203 0.49609 5.4375 1.4844 1.1133 0.99219 1.6719 2.6016 1.6719 4.8281z"/>
  </symbol>
  <symbol id="d" overflow="visible">
   <path d="m7-17.875v3.9531h4.5781v3.1875h-4.5781v5.9062c0 0.64844 0.125 1.0859 0.375 1.3125 0.25781 0.21875 0.76953 0.32812 1.5312 0.32812h2.2969v3.1875h-3.8281c-1.75 0-2.9961-0.36328-3.7344-1.0938-0.73047-0.73828-1.0938-1.9844-1.0938-3.7344v-5.9062h-2.2188v-3.1875h2.2188v-3.9531z"/>
  </symbol>
  <symbol id="j" overflow="visible">
   <path d="m11.609-11.875v-7.4688h4.4688v19.344h-4.4688v-2.0156c-0.61719 0.82422-1.293 1.4297-2.0312 1.8125-0.74219 0.375-1.5938 0.5625-2.5625 0.5625-1.7109 0-3.1172-0.67969-4.2188-2.0469-1.1055-1.3633-1.6562-3.1172-1.6562-5.2656 0-2.1445 0.55078-3.8945 1.6562-5.25 1.1016-1.3633 2.5078-2.0469 4.2188-2.0469 0.96875 0 1.8203 0.19531 2.5625 0.57812 0.73828 0.38672 1.4141 0.98438 2.0312 1.7969zm-2.9375 9c0.95703 0 1.6875-0.34375 2.1875-1.0312 0.5-0.69531 0.75-1.7109 0.75-3.0469 0-1.3203-0.25-2.332-0.75-3.0312-0.5-0.69531-1.2305-1.0469-2.1875-1.0469-0.9375 0-1.6641 0.35156-2.1719 1.0469-0.5 0.69922-0.75 1.7109-0.75 3.0312 0 1.3359 0.25 2.3516 0.75 3.0469 0.50781 0.6875 1.2344 1.0312 2.1719 1.0312z"/>
  </symbol>
  <symbol id="i" overflow="visible">
   <path d="m9.5469-2.875c0.94531 0 1.6719-0.34375 2.1719-1.0312 0.50781-0.69531 0.76562-1.7109 0.76562-3.0469 0-1.3203-0.25781-2.332-0.76562-3.0312-0.5-0.69531-1.2266-1.0469-2.1719-1.0469-0.96094 0-1.6953 0.35547-2.2031 1.0625-0.5 0.69922-0.75 1.7031-0.75 3.0156 0 1.3242 0.25 2.3359 0.75 3.0312 0.50781 0.69922 1.2422 1.0469 2.2031 1.0469zm-2.9531-9c0.60156-0.8125 1.2812-1.4102 2.0312-1.7969 0.75-0.38281 1.6094-0.57812 2.5781-0.57812 1.707 0 3.1133 0.68359 4.2188 2.0469 1.1016 1.3555 1.6562 3.1055 1.6562 5.25 0 2.1484-0.55469 3.9023-1.6562 5.2656-1.1055 1.3672-2.5117 2.0469-4.2188 2.0469-0.96875 0-1.8281-0.19531-2.5781-0.57812s-1.4297-0.98438-2.0312-1.7969v2.0156h-4.4531v-19.344h4.4531z"/>
  </symbol>
  <symbol id="h" overflow="visible">
   <path d="m0.3125-13.922h4.4531l3.7344 9.4531 3.1875-9.4531h4.4375l-5.8438 15.234c-0.59375 1.5508-1.2812 2.6328-2.0625 3.25-0.78125 0.625-1.8125 0.9375-3.0938 0.9375h-2.5781v-2.9219h1.3906c0.75781 0 1.3125-0.12109 1.6562-0.35938 0.34375-0.24219 0.60938-0.67188 0.79688-1.2969l0.125-0.39062z"/>
  </symbol>
  <symbol id="g" overflow="visible">
   <path d="m0.125-18.562h17.094v3.625h-6.1406v14.938h-4.7969v-14.938h-6.1562z"/>
  </symbol>
  <symbol id="v" overflow="visible">
   <path d="m0.39062-13.922h4.4375l3.4688 9.625 3.4531-9.625h4.4688l-5.4844 13.922h-4.875z"/>
  </symbol>
  <symbol id="c" overflow="visible">
   <path d="m8.7656-11.078c-0.99219 0-1.7461 0.35547-2.2656 1.0625-0.51172 0.71094-0.76562 1.7305-0.76562 3.0625 0 1.3359 0.25391 2.3555 0.76562 3.0625 0.51953 0.71094 1.2734 1.0625 2.2656 1.0625 0.96875 0 1.707-0.35156 2.2188-1.0625 0.50781-0.70703 0.76562-1.7266 0.76562-3.0625 0-1.332-0.25781-2.3516-0.76562-3.0625-0.51172-0.70703-1.25-1.0625-2.2188-1.0625zm0-3.1719c2.3945 0 4.2656 0.64844 5.6094 1.9375 1.3438 1.293 2.0156 3.0781 2.0156 5.3594 0 2.293-0.67188 4.0859-2.0156 5.375-1.3438 1.293-3.2148 1.9375-5.6094 1.9375-2.4062 0-4.2891-0.64453-5.6406-1.9375-1.3555-1.2891-2.0312-3.082-2.0312-5.375 0-2.2812 0.67578-4.0664 2.0312-5.3594 1.3516-1.2891 3.2344-1.9375 5.6406-1.9375z"/>
  </symbol>
  <symbol id="u" overflow="visible">
   <path d="m7.125-14.938v11.328h1.7188c1.9453 0 3.4375-0.48438 4.4688-1.4531 1.0312-0.97656 1.5469-2.3906 1.5469-4.2344s-0.51562-3.2422-1.5469-4.2031c-1.0234-0.95703-2.5117-1.4375-4.4688-1.4375zm-4.7812-3.625h5.0312c2.8203 0 4.9219 0.20312 6.2969 0.60938 1.3828 0.40625 2.5664 1.0898 3.5469 2.0469 0.875 0.83594 1.5195 1.7969 1.9375 2.8906 0.42578 1.0938 0.64062 2.3359 0.64062 3.7188 0 1.3984-0.21484 2.6484-0.64062 3.75-0.41797 1.0938-1.0625 2.0625-1.9375 2.9062-0.99219 0.96094-2.1836 1.6406-3.5781 2.0469-1.3867 0.39844-3.4766 0.59375-6.2656 0.59375h-5.0312z"/>
  </symbol>
  <symbol id="t" overflow="visible">
   <path d="m13.016-13.484v3.375c-0.96094-0.39453-1.8828-0.69141-2.7656-0.89062-0.88672-0.19531-1.7188-0.29688-2.5-0.29688-0.85547 0-1.4844 0.10938-1.8906 0.32812-0.40625 0.21094-0.60938 0.53125-0.60938 0.96875 0 0.35547 0.14844 0.625 0.45312 0.8125 0.3125 0.1875 0.86719 0.32812 1.6719 0.42188l0.79688 0.10938c2.2695 0.29297 3.7969 0.77344 4.5781 1.4375 0.78906 0.65625 1.1875 1.6992 1.1875 3.125 0 1.4805-0.54688 2.5938-1.6406 3.3438-1.0938 0.74219-2.7266 1.1094-4.8906 1.1094-0.91797 0-1.8711-0.074219-2.8594-0.21875-0.98047-0.14453-1.9844-0.36328-3.0156-0.65625v-3.375c0.88281 0.42969 1.7891 0.75 2.7188 0.96875 0.9375 0.21875 1.8828 0.32812 2.8438 0.32812 0.875 0 1.5312-0.11719 1.9688-0.35938 0.4375-0.23828 0.65625-0.59766 0.65625-1.0781 0-0.39453-0.15234-0.6875-0.45312-0.875-0.30469-0.19531-0.90625-0.35156-1.8125-0.46875l-0.78125-0.09375c-1.9805-0.25-3.3711-0.70703-4.1719-1.375-0.79297-0.67578-1.1875-1.6953-1.1875-3.0625 0-1.4766 0.50391-2.5703 1.5156-3.2812 1.0078-0.70703 2.5625-1.0625 4.6562-1.0625 0.82031 0 1.6797 0.0625 2.5781 0.1875 0.90625 0.125 1.8906 0.32031 2.9531 0.57812z"/>
  </symbol>
  <symbol id="f" overflow="visible">
   <path d="m1.9844-5.4219v-8.5h4.4844v1.3906c0 0.76172-0.007812 1.7109-0.015625 2.8438-0.011719 1.1367-0.015625 1.8984-0.015625 2.2812 0 1.1172 0.023438 1.9219 0.078125 2.4219 0.0625 0.49219 0.16406 0.84375 0.3125 1.0625 0.17578 0.29297 0.41016 0.52344 0.70312 0.6875 0.30078 0.15625 0.64062 0.23438 1.0156 0.23438 0.92578 0 1.6562-0.35156 2.1875-1.0625 0.53125-0.71875 0.79688-1.7109 0.79688-2.9844v-6.875h4.4531v13.922h-4.4531v-2.0156c-0.66797 0.8125-1.375 1.4141-2.125 1.7969s-1.5781 0.57812-2.4844 0.57812c-1.6055 0-2.8281-0.48828-3.6719-1.4688-0.84375-0.98828-1.2656-2.4258-1.2656-4.3125z"/>
  </symbol>
  <symbol id="s" overflow="visible">
   <path d="m1.4531-13.922h12.141v3.1094l-7.3281 7.625h7.3281v3.1875h-12.453v-3.1094l7.3281-7.625h-7.0156z"/>
  </symbol>
  <symbol id="r" overflow="visible">
   <path d="m11.297-19.344v2.9219h-2.4531c-0.63672 0-1.0781 0.11719-1.3281 0.34375-0.25 0.23047-0.375 0.625-0.375 1.1875v0.96875h3.8125v3.1875h-3.8125v10.734h-4.4375v-10.734h-2.2188v-3.1875h2.2188v-0.96875c0-1.5078 0.42188-2.6289 1.2656-3.3594 0.84375-0.72656 2.1484-1.0938 3.9219-1.0938z"/>
  </symbol>
  <symbol id="q" overflow="visible">
   <path d="m15.031-11.609c0.57031-0.86328 1.2422-1.5195 2.0156-1.9688 0.76953-0.44531 1.6172-0.67188 2.5469-0.67188 1.6016 0 2.8203 0.49609 3.6562 1.4844 0.84375 0.98047 1.2656 2.4141 1.2656 4.2969v8.4688h-4.4844v-7.2656c0.007812-0.10156 0.015625-0.21094 0.015625-0.32812 0.007813-0.11328 0.015625-0.28125 0.015625-0.5 0-0.97656-0.14844-1.6914-0.4375-2.1406-0.29297-0.44531-0.76172-0.67188-1.4062-0.67188-0.84375 0-1.4961 0.35156-1.9531 1.0469-0.46094 0.69922-0.69922 1.7109-0.71875 3.0312v6.8281h-4.4688v-7.2656c0-1.5312-0.13672-2.5195-0.40625-2.9688-0.26172-0.44531-0.73047-0.67188-1.4062-0.67188-0.85547 0-1.5156 0.35547-1.9844 1.0625-0.46094 0.69922-0.6875 1.6992-0.6875 3v6.8438h-4.4844v-13.922h4.4844v2.0469c0.53906-0.78906 1.1641-1.3828 1.875-1.7812 0.70703-0.39453 1.4883-0.59375 2.3438-0.59375 0.95703 0 1.8047 0.23438 2.5469 0.70312 0.73828 0.46094 1.2969 1.1055 1.6719 1.9375z"/>
  </symbol>
  <symbol id="p" overflow="visible">
   <path d="m16.125-8.4688v8.4688h-4.4688v-6.4688c0-1.2188-0.027344-2.0508-0.078125-2.5-0.054687-0.45703-0.14844-0.79688-0.28125-1.0156-0.17969-0.28906-0.41797-0.51562-0.71875-0.67188-0.29297-0.16406-0.63281-0.25-1.0156-0.25-0.92969 0-1.6562 0.35938-2.1875 1.0781-0.52344 0.71875-0.78125 1.7148-0.78125 2.9844v6.8438h-4.4531v-19.344h4.4531v7.4688c0.66406-0.8125 1.375-1.4102 2.125-1.7969 0.75781-0.38281 1.5938-0.57812 2.5-0.57812 1.6133 0 2.832 0.49609 3.6562 1.4844 0.83203 0.98047 1.25 2.4141 1.25 4.2969z"/>
  </symbol>
  <symbol id="o" overflow="visible">
   <path d="m2.3438-18.562h5.3438l6.7344 12.734v-12.734h4.5469v18.562h-5.3438l-6.75-12.734v12.734h-4.5312z"/>
  </symbol>
  <symbol id="n" overflow="visible">
   <path d="m16.125-8.4688v8.4688h-4.4688v-6.4844c0-1.207-0.027344-2.0352-0.078125-2.4844-0.054687-0.45703-0.14844-0.79688-0.28125-1.0156-0.17969-0.28906-0.41797-0.51562-0.71875-0.67188-0.29297-0.16406-0.63281-0.25-1.0156-0.25-0.92969 0-1.6562 0.35938-2.1875 1.0781-0.52344 0.71875-0.78125 1.7148-0.78125 2.9844v6.8438h-4.4531v-13.922h4.4531v2.0469c0.66406-0.8125 1.375-1.4102 2.125-1.7969 0.75781-0.38281 1.5938-0.57812 2.5-0.57812 1.6133 0 2.832 0.49609 3.6562 1.4844 0.83203 0.98047 1.25 2.4141 1.25 4.2969z"/>
  </symbol>
  <symbol id="m" overflow="visible">
   <path d="m2.3438-18.562h7.9375c2.3516 0 4.1602 0.52734 5.4219 1.5781 1.2695 1.0547 1.9062 2.5469 1.9062 4.4844 0 1.9492-0.63672 3.4492-1.9062 4.5-1.2617 1.043-3.0703 1.5625-5.4219 1.5625h-3.1562v6.4375h-4.7812zm4.7812 3.4688v5.1875h2.6406c0.92578 0 1.6406-0.22266 2.1406-0.67188 0.50781-0.45703 0.76562-1.0977 0.76562-1.9219 0-0.83203-0.25781-1.4727-0.76562-1.9219-0.5-0.44531-1.2148-0.67188-2.1406-0.67188z"/>
  </symbol>
  <symbol id="l" overflow="visible">
   <path d="m2.1406-13.922h4.4531v13.672c0 1.8633-0.44922 3.2852-1.3438 4.2656-0.89844 0.98828-2.1953 1.4844-3.8906 1.4844h-2.2031v-2.9219h0.76562c0.84375 0 1.4219-0.19531 1.7344-0.57812 0.32031-0.38672 0.48438-1.1367 0.48438-2.25zm0-5.4219h4.4531v3.6406h-4.4531z"/>
  </symbol>
  <symbol id="k" overflow="visible">
   <path d="m13.391-13.484v3.625c-0.60547-0.41406-1.2148-0.72266-1.8281-0.92188-0.60547-0.19531-1.2344-0.29688-1.8906-0.29688-1.2422 0-2.2109 0.36719-2.9062 1.0938-0.6875 0.71875-1.0312 1.7305-1.0312 3.0312 0 1.3047 0.34375 2.3203 1.0312 3.0469 0.69531 0.71875 1.6641 1.0781 2.9062 1.0781 0.69531 0 1.3594-0.097656 1.9844-0.29688 0.625-0.20703 1.2031-0.51562 1.7344-0.92188v3.6406c-0.69922 0.25-1.4062 0.4375-2.125 0.5625-0.71875 0.13281-1.4375 0.20312-2.1562 0.20312-2.5117 0-4.4766-0.64062-5.8906-1.9219-1.418-1.2891-2.125-3.0859-2.125-5.3906 0-2.2891 0.70703-4.0781 2.125-5.3594 1.4141-1.2891 3.3789-1.9375 5.8906-1.9375 0.72656 0 1.4453 0.0625 2.1562 0.1875 0.70703 0.125 1.4141 0.32031 2.125 0.57812z"/>
  </symbol>
 </defs>
 <g>
  <path d="m510.32 322.44c8.0508 5.3438 17.688 8.4688 28.047 8.4688 28.07 0 50.91-22.836 50.91-50.91 0-28.07-22.836-50.91-50.91-50.91-10.359 0-19.996 3.125-28.047 8.4648l-22.363-22.359 37.211-74.449c4.2188 1.1367 8.6328 1.8008 13.199 1.8008 28.07 0 50.91-22.836 50.91-50.91 0-28.07-22.84-50.91-50.91-50.91-24.586 0-45.152 17.52-49.887 40.727h-88.59c-4.7344-23.211-25.301-40.727-49.887-40.727s-45.152 17.52-49.879 40.727h-88.605c-4.7266-23.207-25.297-40.727-49.879-40.727-28.07 0-50.91 22.84-50.91 50.91 0 28.07 22.836 50.91 50.91 50.91 4.5703 0 8.9805-0.66016 13.195-1.7969l37.211 74.449-22.359 22.359c-8.0508-5.3438-17.688-8.4688-28.047-8.4688-28.07 0-50.91 22.836-50.91 50.91 0 28.07 22.836 50.91 50.91 50.91 10.359 0 19.996-3.125 28.047-8.4648l22.359 22.363-37.215 74.445c-4.2109-1.1367-8.625-1.8008-13.191-1.8008-28.07 0-50.91 22.836-50.91 50.91 0 28.07 22.836 50.91 50.91 50.91 24.586 0 45.152-17.52 49.879-40.727h88.598c4.7305 23.211 25.297 40.727 49.879 40.727 24.586 0 45.152-17.52 49.887-40.727h88.594c4.7344 23.211 25.301 40.727 49.887 40.727 28.07 0 50.91-22.836 50.91-50.91 0-28.07-22.836-50.91-50.91-50.91-4.5664 0-8.9805 0.66016-13.195 1.7969l-37.215-74.445zm-117.88 117.88 34.207-34.207 64.598 43.043c-1.1797 2.8867-2.1289 5.8984-2.7695 9.0195l-88.59 0.003906c-1.3242-6.4805-3.9023-12.52-7.4453-17.859zm-183.69 8.8398 64.598-43.039 34.199 34.207c-3.5391 5.3398-6.1133 11.375-7.4375 17.863h-88.598c-0.63672-3.1328-1.5781-6.1406-2.7617-9.0312zm3.3906-175.25 25.066-8.3555 7.2227 14.453-7.2227 14.453-25.066-8.3477c0.23828-2.0078 0.40234-4.0391 0.40234-6.1055s-0.16406-4.0977-0.40234-6.0977zm95.414-154.22-34.199 34.199-64.598-43.043c1.1797-2.8867 2.1289-5.8984 2.7656-9.0195h88.598c1.3125 6.4883 3.8906 12.523 7.4336 17.863zm183.68-8.8438-64.598 43.043-34.199-34.195c3.543-5.3398 6.1211-11.375 7.4414-17.863h88.594c0.63281 3.1211 1.5859 6.1289 2.7617 9.0156zm-3.3867 175.27-25.066 8.3477-7.2227-14.453 7.2188-14.449 25.074 8.3555c-0.24609 1.9961-0.40625 4.0273-0.40625 6.0938s0.16016 4.0977 0.40234 6.1055zm-175.88 22.938c-2.2773 2.5625-4.293 5.3398-6.0234 8.3203l-14.672-4.8867 11.633-15.508zm16.281-12.223-12.613-16.82 12.617-16.82c6.6016 3.1367 13.953 4.9414 21.738 4.9414 7.7773 0 15.137-1.8086 21.738-4.9414l12.609 16.82-12.621 16.82c-6.6016-3.1367-13.953-4.9414-21.738-4.9414-7.7773 0-15.129 1.8047-21.73 4.9414zm-16.281-45.867-9.0625 12.082-11.629-15.5 14.672-4.8867c1.7305 2.9688 3.7461 5.7461 6.0195 8.3047zm76.039 0c2.2695-2.5547 4.293-5.3359 6.0234-8.3125l14.672 4.8867-11.629 15.5zm0 58.09 9.0625-12.074 11.629 15.508-14.672 4.8867c-1.7305-2.9805-3.75-5.7578-6.0195-8.3203zm35.586-10.648-13.797-18.395 13.797-18.395 9.1914 18.395zm-23.098-75.062c0.23828-2.0117 0.40234-4.0469 0.40234-6.1172 0-0.38281-0.050781-0.75-0.0625-1.1289l4.418 8.8359zm-19.961-6.1172c0 16.848-13.699 30.547-30.547 30.547s-30.547-13.699-30.547-30.547 13.699-30.547 30.547-30.547 30.547 13.699 30.547 30.547zm-81.047 6.1172-4.7656 1.5898 4.418-8.8359c-0.011719 0.375-0.0625 0.74609-0.0625 1.1289 0 2.0703 0.16406 4.1055 0.41016 6.1172zm-23.105 38.27 13.797 18.398-13.797 18.395-9.1914-18.395zm23.105 75.066c-0.24609 2.0117-0.41016 4.0469-0.41016 6.1172 0 0.375 0.050781 0.74219 0.054687 1.125l-4.4141-8.8281zm19.953 6.1172c0-16.848 13.699-30.547 30.547-30.547s30.547 13.699 30.547 30.547-13.699 30.547-30.547 30.547-30.547-13.699-30.547-30.547zm81.055-6.1172 4.7656-1.5898-4.418 8.832c0.003906-0.375 0.054687-0.74219 0.054687-1.125 0-2.0703-0.16406-4.1055-0.40234-6.1172zm41.449-99.527 16.781-22.375 4.4492 4.4492-10.711 21.426zm-14.867-14.113-16.867-33.73 13.82-9.2109 20.145 20.141zm-26.043-52.094-13.844-27.691 22.156 22.156zm40.277-2.3633 53.184-35.434-37.984 50.633zm-78.125-27.82 18.246 36.508c-8.668-6.8359-19.578-10.949-31.445-10.949-11.871 0-22.777 4.1172-31.445 10.949l18.246-36.5c4.2188 1.125 8.6289 1.7891 13.199 1.7891s8.9805-0.66406 13.199-1.7969zm-64.25 30.184-8.3086-5.5391 22.156-22.156zm-40.273-2.3672-15.203 15.203-37.984-50.633zm17.277 11.516 13.82 9.2109-16.859 33.73-17.102-22.801zm-17.906 57.059-10.52 3.5039-10.711-21.426 4.4492-4.4492zm0 85.715-16.781 22.375-4.4453-4.4453 10.711-21.426zm14.867 14.117 16.859 33.73-13.82 9.2148-20.141-20.145zm26.035 52.09 13.844 27.691-22.156-22.156zm-40.281 2.3711-53.18 35.434 37.977-50.633zm78.137 27.816-18.246-36.508c8.6641 6.8359 19.574 10.949 31.441 10.949 11.871 0 22.781-4.1172 31.445-10.949l-18.25 36.508c-4.2148-1.1328-8.625-1.7969-13.195-1.7969-4.5664 0-8.9805 0.66406-13.195 1.7969zm64.242-30.188 8.3203 5.5391-22.16 22.16zm40.285 2.3672 15.195-15.195 37.984 50.633zm-17.281-11.516-13.828-9.2109 16.859-33.73 17.105 22.801zm17.906-57.055 10.512-3.5039 10.711 21.426-4.4492 4.4492zm30.031-10.008 22.332-7.4375c0.51563 0.89063 1.0352 1.7773 1.5977 2.6328l-17.559 17.559zm66.375-63.398c16.848 0 30.547 13.699 30.547 30.547s-13.699 30.547-30.547 30.547c-16.848 0-30.547-13.699-30.547-30.547s13.703-30.547 30.547-30.547zm-42.441 2.5c-0.56641 0.85547-1.0898 1.7461-1.6055 2.6367l-22.332-7.4375 6.3789-12.754zm-24.844-53.637 7.6484-10.195-5.9453 11.898zm67.285-137.23c16.848 0 30.547 13.699 30.547 30.547 0 16.848-13.699 30.547-30.547 30.547-16.848 0-30.547-13.699-30.547-30.547 0-16.848 13.703-30.547 30.547-30.547zm-188.36 0c16.848 0 30.547 13.699 30.547 30.547 0 16.848-13.699 30.547-30.547 30.547s-30.547-13.699-30.547-30.547c0-16.848 13.699-30.547 30.547-30.547zm-218.91 30.547c0-16.848 13.699-30.547 30.547-30.547 16.848 0 30.547 13.699 30.547 30.547 0 16.848-13.699 30.547-30.547 30.547-16.848 0-30.547-13.703-30.547-30.547zm90.188 96.484 7.6484 10.191-1.6992 1.6992zm6.7383 59.027-22.332 7.4375c-0.51562-0.89063-1.0352-1.7812-1.5977-2.6367l17.559-17.559zm-66.379 63.398c-16.848 0-30.547-13.699-30.547-30.547s13.699-30.547 30.547-30.547c16.848 0 30.547 13.699 30.547 30.547s-13.703 30.547-30.547 30.547zm42.441-2.5c0.56641-0.85547 1.0859-1.7422 1.5977-2.6328l22.332 7.4375-6.375 12.754zm24.844 53.637-7.6367 10.184 5.9414-11.883zm-67.285 137.23c-16.848 0-30.547-13.699-30.547-30.547 0-16.848 13.699-30.547 30.547-30.547 16.848 0 30.547 13.699 30.547 30.547 0 16.848-13.703 30.547-30.547 30.547zm188.36 0c-16.848 0-30.547-13.699-30.547-30.547 0-16.848 13.699-30.547 30.547-30.547s30.547 13.699 30.547 30.547c0 16.848-13.699 30.547-30.547 30.547zm218.91-30.547c0 16.848-13.699 30.547-30.547 30.547-16.848 0-30.547-13.699-30.547-30.547 0-16.848 13.699-30.547 30.547-30.547 16.848 0 30.547 13.703 30.547 30.547zm-90.191-96.488-7.6406-10.191 1.6992-1.6992z"/>
 </g>
</svg>
