<svg version="1.1" id="Layer_1" xmlns="http://www.w3.org/2000/svg" xmlns:xlink="http://www.w3.org/1999/xlink" x="0px" y="0px"
	 width="100%" viewBox="0 0 320 320" enable-background="new 0 0 320 320" xml:space="preserve">
<path fill="#000000" opacity="1.000000" stroke="none" 
	d="
M159.455307,145.288391 
	C165.012558,143.774414 165.804550,143.270370 168.795288,139.470734 
	C168.172134,137.414368 165.769562,138.648026 164.718719,137.315720 
	C163.526688,135.804443 163.879181,134.171524 164.184143,132.546158 
	C164.552139,130.584793 165.963959,129.547806 167.786392,129.855728 
	C175.723816,131.196869 183.710938,129.813797 191.652466,130.466141 
	C199.531555,131.113358 204.866211,135.480347 208.519409,142.146576 
	C209.615799,144.147232 210.252777,145.688171 213.275040,145.074844 
	C216.024933,144.516785 217.528442,147.398285 218.903961,149.347839 
	C220.361557,151.413727 218.168091,152.606964 216.983765,153.872589 
	C213.570236,157.520416 210.063568,161.081436 206.667450,164.745102 
	C204.606949,166.967926 202.686386,168.212250 200.023117,165.447845 
	C197.893753,163.237656 196.290390,161.578705 199.031998,158.390701 
	C203.512451,153.180740 203.535141,150.066055 200.296341,144.819107 
	C197.736038,140.671341 191.544815,137.778015 186.986313,138.598999 
	C181.202042,139.640732 176.353928,143.927078 175.330276,148.904312 
	C173.784912,156.418213 177.147949,162.419250 184.360107,164.977951 
	C185.892654,164.217606 184.882462,162.942230 184.944046,161.896606 
	C185.106735,159.134048 187.303009,159.079376 189.218552,158.608459 
	C191.076309,158.151779 192.554184,158.464386 193.166016,160.509811 
	C195.548660,168.475143 198.376251,176.344681 200.147339,184.444656 
	C201.769974,191.865753 199.453705,198.621262 193.813400,203.988007 
	C192.308258,205.420151 191.149429,206.462372 192.912979,208.902908 
	C194.698044,211.373169 192.146317,213.570435 190.794617,215.521347 
	C189.382538,217.559418 187.527115,216.325394 185.890930,215.526520 
	C181.102783,213.188736 176.347610,210.781982 171.532791,208.500885 
	C169.050140,207.324707 167.712982,205.893112 169.325027,203.079453 
	C170.725937,200.634323 171.506943,197.956680 175.596039,199.646835 
	C181.707703,202.173019 186.026077,200.863541 189.391785,196.395096 
	C192.806427,191.861679 192.931946,184.586761 189.675705,179.938171 
	C186.522003,175.435974 179.945847,173.112930 174.559662,174.598404 
	C169.288010,176.052292 165.349594,180.861465 165.099762,186.211533 
	C165.078384,186.669220 165.348450,187.140518 165.469635,187.558960 
	C167.260040,188.603668 168.882507,186.273788 170.748169,187.656815 
	C173.913361,190.003204 174.044220,193.418762 170.692108,195.608673 
	C165.113159,199.253357 159.738846,203.169907 154.354736,207.096024 
	C147.561325,212.049850 140.002960,212.952881 132.163345,209.362808 
	C129.914825,208.333099 128.050079,207.131409 125.503746,209.619049 
	C123.726166,211.355652 120.676788,210.361267 118.441490,209.119308 
	C116.261406,207.908081 117.479584,205.814011 117.680237,204.130219 
	C118.270020,199.181061 119.026787,194.251633 119.732765,189.316574 
	C120.078178,186.902084 120.464760,184.471848 123.885231,185.124924 
	C126.623154,185.647690 129.349457,185.661728 129.356583,189.943649 
	C129.371613,198.963425 134.130280,203.330948 142.510880,202.781662 
	C150.161957,202.280197 155.608047,195.591125 154.894562,187.571609 
	C154.231644,180.120438 147.253922,174.420639 139.953217,175.433441 
	C139.008682,175.564438 138.115906,176.068588 137.274658,176.372620 
	C136.876175,178.620026 139.586990,179.292648 139.211136,181.426773 
	C138.577377,185.025330 134.815796,186.602524 131.799927,184.351715 
	C126.463745,180.369171 121.149391,176.357346 115.811470,172.377106 
	C108.404655,166.854233 105.916153,159.315063 106.766449,150.402634 
	C106.953712,148.439819 107.437614,146.814590 104.654831,145.711456 
	C101.957886,144.642303 102.659668,141.407883 102.716637,138.986862 
	C102.771240,136.666122 104.860664,136.848358 106.445808,136.552155 
	C111.675888,135.574905 116.906670,134.601303 122.139801,133.640549 
	C124.339355,133.236755 126.772636,132.747955 127.094124,135.955353 
	C127.371010,138.717834 128.709198,141.873932 124.181648,143.119415 
	C117.562492,144.940277 115.106247,148.351318 115.145103,154.408707 
	C115.184189,160.502914 119.169807,165.767410 124.965744,167.380478 
	C130.917755,169.037003 136.977600,166.821259 140.275406,161.782547 
	C143.773331,156.438080 143.450226,151.322891 139.263153,146.310608 
	C137.332672,146.886032 137.674011,150.037659 135.000381,149.939621 
	C131.468201,149.810104 129.449158,147.055664 130.600372,143.551163 
	C132.625275,137.387024 134.640686,131.219513 136.710632,125.070450 
	C139.561172,116.602554 145.429596,111.472488 154.153198,109.708336 
	C156.552536,109.223122 158.474701,108.998390 158.793869,105.726280 
	C159.054901,103.050514 162.132080,102.760529 164.241013,102.043571 
	C166.631546,101.230873 167.357544,103.452461 168.195663,104.985176 
	C170.751526,109.659218 173.134613,114.427986 175.704910,119.093788 
	C176.915771,121.291824 177.402786,123.133987 174.582626,124.375847 
	C172.259705,125.398750 170.161469,127.452225 167.647369,124.220581 
	C162.251038,117.284073 158.697449,116.224052 152.505829,119.057968 
	C146.525406,121.795204 143.196350,128.126648 144.547409,134.193878 
	C146.082230,141.086365 151.241013,145.052902 159.455307,145.288391 
M168.889206,167.613052 
	C169.958298,166.908722 170.669968,166.038467 169.908081,164.729507 
	C167.825790,161.152039 166.917282,157.143661 165.921371,153.136414 
	C161.875168,153.026306 158.216354,154.706985 154.360168,153.607895 
	C152.356461,153.036789 151.483261,154.543640 151.242996,156.489899 
	C151.042221,158.116241 151.010788,160.031784 150.126160,161.257690 
	C146.789230,165.882019 149.572220,167.335831 153.002716,170.330215 
	C158.239716,174.901428 161.757050,174.153442 165.823608,169.595154 
	C166.459473,168.882416 167.470764,168.504608 168.889206,167.613052 
z"/>
<path fill="#000000" opacity="1.000000" stroke="none" 
	d="
M214.679016,235.125122 
	C217.456818,240.977341 221.644226,245.568176 224.935944,250.757675 
	C225.787766,252.100586 228.150604,253.714279 225.656891,255.316498 
	C223.638062,256.613586 222.837494,254.303680 221.938538,253.055206 
	C218.183975,247.840790 214.504562,242.572266 210.996170,237.604736 
	C207.642700,238.132050 206.219589,241.332901 203.173859,240.823044 
	C203.394196,239.106735 228.910690,216.627655 231.425201,215.921722 
	C232.103348,219.731033 228.700012,220.944733 226.885239,222.838684 
	C224.588882,225.235245 224.085266,226.859467 226.705215,229.401184 
	C229.371124,231.987488 231.054855,231.396469 233.202469,228.875046 
	C234.763168,227.042694 235.850082,224.100815 239.608475,224.747681 
	C239.360901,229.472076 234.509125,230.752502 233.090118,234.288528 
	C237.047516,240.958664 238.411743,241.100189 243.412277,235.538223 
	C244.686020,234.121506 245.545502,232.095062 247.800522,231.899551 
	C249.547302,232.867813 249.289398,234.128357 248.279266,235.232895 
	C245.695496,238.058151 243.003464,240.784424 240.355515,243.551010 
	C238.632874,245.350830 237.120651,244.614517 235.637619,243.185364 
	C232.639221,240.295929 229.613434,237.434845 226.622482,234.537781 
	C220.918228,229.012573 220.740341,229.009506 214.679016,235.125122 
z"/>
<path fill="#000000" opacity="1.000000" stroke="none" 
	d="
M241.323425,104.287415 
	C245.236908,102.351067 248.816742,100.579102 252.415955,98.847412 
	C253.841080,98.161743 255.357712,96.704948 256.800964,98.687279 
	C258.081024,100.445488 257.434479,102.064552 256.213776,103.685074 
	C253.028244,107.913910 249.947830,112.221947 246.078522,117.521461 
	C252.046371,117.521461 257.075073,117.597931 262.099670,117.486633 
	C264.344696,117.436913 266.681458,117.112961 267.377319,119.904984 
	C268.098083,122.797066 265.269165,122.928535 263.715454,123.764519 
	C258.733826,126.444908 253.666763,128.975830 248.551941,131.393677 
	C246.968750,132.142075 244.694626,134.488251 243.501419,131.795029 
	C242.407745,129.326401 245.591644,128.930893 247.177551,128.060974 
	C250.909973,126.013672 254.753204,124.168396 258.381897,121.178207 
	C253.976868,121.178207 249.565094,121.330101 245.168686,121.135147 
	C240.841690,120.943260 240.235840,119.522736 242.691940,115.870811 
	C243.898697,114.076508 245.315765,112.422028 246.495514,110.611633 
	C247.658127,108.827515 249.450806,107.422951 250.117859,104.246979 
	C245.364044,106.593719 241.181381,108.720886 236.937271,110.717445 
	C235.580154,111.355858 233.771118,112.958740 232.759079,110.525444 
	C231.970657,108.629753 233.920044,108.082466 235.209518,107.408722 
	C237.127441,106.406616 239.067108,105.446144 241.323425,104.287415 
z"/>
<path fill="#000000" opacity="1.000000" stroke="none" 
	d="
M264.353577,199.557907 
	C265.896362,200.797150 268.906769,200.962830 267.419556,203.478943 
	C266.250366,205.457016 264.384491,203.697998 263.010590,203.063370 
	C259.115875,201.264374 255.305984,199.281693 250.549683,196.917557 
	C252.618271,203.164108 257.802429,206.547455 259.404297,212.535370 
	C253.202759,214.206070 247.207031,212.613831 241.001862,213.863480 
	C246.299667,217.662781 252.558731,219.216736 257.224976,223.274033 
	C255.345291,226.011292 253.793823,225.018478 252.343964,224.286102 
	C246.695099,221.432617 241.047714,218.574310 235.451416,215.619949 
	C234.071976,214.891708 232.082443,214.275864 232.805634,212.026505 
	C233.407730,210.153748 235.073364,209.736313 236.836807,209.731476 
	C242.104736,209.717056 247.372742,209.726288 253.298782,209.726288 
	C251.028214,204.266800 247.481155,200.703278 244.842667,196.571793 
	C243.801651,194.941727 241.943451,193.341354 243.591049,191.237381 
	C245.397125,188.931091 247.251984,190.869110 248.893570,191.671967 
	C253.980148,194.159668 258.990143,196.803925 264.353577,199.557907 
z"/>
<path fill="#000000" opacity="1.000000" stroke="none" 
	d="
M159.293945,263.166443 
	C159.547073,266.736725 159.851608,269.873718 160.016037,273.018066 
	C160.086349,274.362732 159.903534,275.848541 158.082184,275.910950 
	C156.519821,275.964478 156.233765,274.600311 156.159714,273.473145 
	C155.702759,266.517670 155.315048,259.557404 154.950592,252.596283 
	C154.877625,251.202499 155.186630,249.914673 156.865051,249.558701 
	C158.609741,249.188705 159.698700,250.127457 160.595825,251.435043 
	C163.414658,255.543701 166.216019,259.664459 169.053787,263.760010 
	C169.953445,265.058411 170.946167,266.292328 172.069016,267.785431 
	C174.161926,261.343079 169.612808,254.882156 172.990738,248.941788 
	C175.467545,249.478378 175.233093,251.002045 175.317154,252.253906 
	C175.728683,258.381836 176.113159,264.512054 176.435654,270.645233 
	C176.516907,272.190430 177.489273,274.206879 175.353653,275.031342 
	C172.909637,275.974915 171.834442,273.997955 170.692139,272.326202 
	C167.880920,268.212128 165.045349,264.114380 162.182037,260.036438 
	C161.542511,259.125641 161.185791,257.918915 159.805466,257.512238 
	C158.664734,259.163635 159.506790,261.014648 159.293945,263.166443 
z"/>
<path fill="#000000" opacity="1.000000" stroke="none" 
	d="
M174.014908,48.438301 
	C176.483688,46.103691 177.254623,47.748238 177.177002,49.648792 
	C176.885880,56.776844 176.385452,63.896832 175.914490,71.016602 
	C175.833054,72.247734 175.285461,73.291924 173.846008,73.412209 
	C172.025604,73.564331 171.275208,72.336418 170.543701,70.926804 
	C167.505417,65.072052 164.397720,59.253315 160.818680,52.481358 
	C159.492264,59.669235 159.963135,66.174194 158.315948,72.428268 
	C155.084457,71.268730 155.625168,69.571259 155.695526,68.186249 
	C156.006973,62.053703 156.389938,55.924442 156.797256,49.797333 
	C156.905045,48.176113 156.792862,46.298382 159.041916,45.917408 
	C161.100967,45.568615 162.018799,47.012089 162.806686,48.531521 
	C165.759888,54.226631 168.693481,59.931911 172.240189,66.807777 
	C172.864822,59.917439 173.366898,54.378990 174.014908,48.438301 
z"/>
<path fill="#000000" opacity="1.000000" stroke="none" 
	d="
M91.125458,92.389809 
	C85.925453,92.467140 86.333466,94.319305 88.707764,97.542007 
	C90.001854,99.298523 94.217804,100.970543 91.781509,103.178215 
	C89.273956,105.450470 87.570091,101.270905 85.785049,99.696182 
	C81.927956,96.293526 78.411560,92.507751 74.620056,89.026543 
	C72.298218,86.894730 71.931473,85.010010 74.481430,82.862167 
	C75.366173,82.116943 76.082588,81.175621 76.917336,80.366631 
	C80.112434,77.270081 83.444618,74.349739 88.311531,76.736839 
	C92.963432,79.018486 93.837440,83.005875 92.588165,87.661316 
	C95.583473,90.630920 100.245659,88.798393 103.534302,92.107895 
	C99.401321,95.673065 95.362671,92.586449 91.125458,92.389809 
M78.330879,87.266884 
	C79.287125,88.170197 80.201591,89.123627 81.210083,89.964249 
	C82.498085,91.037865 84.007248,92.269119 85.472763,90.494293 
	C87.169609,88.439301 90.026093,86.837227 89.122292,83.449165 
	C88.496414,81.102959 86.588196,79.394485 84.457146,79.799492 
	C80.929504,80.469917 77.693909,82.167076 78.330879,87.266884 
z"/>
<path fill="#000000" opacity="1.000000" stroke="none" 
	d="
M57.570831,114.548447 
	C58.054737,121.556160 63.605331,126.855453 69.945473,126.568489 
	C73.644875,126.401039 76.152428,124.395378 77.152328,120.750275 
	C78.140831,117.146729 76.161613,115.216644 73.420952,113.802147 
	C70.887207,114.628983 71.317436,118.247299 68.105659,118.513351 
	C67.632858,114.593987 70.051941,112.059731 71.761818,108.796654 
	C74.358299,109.919174 76.798775,110.886757 79.156464,112.025726 
	C80.615288,112.730461 82.305122,113.144508 83.535225,114.991989 
	C81.533722,116.517357 80.392014,118.567894 80.962944,121.262489 
	C81.052437,121.684822 80.706390,122.207664 80.537415,122.675247 
	C78.821083,127.424644 74.065247,130.484116 68.790489,130.237900 
	C62.537865,129.946045 56.089882,125.222618 54.359921,119.666908 
	C52.821739,114.727104 54.597088,109.397079 58.891174,106.461823 
	C60.319908,105.485199 61.842575,104.093521 63.995403,105.909683 
	C63.117477,109.584755 58.022221,110.186386 57.570831,114.548447 
z"/>
<path fill="#000000" opacity="1.000000" stroke="none" 
	d="
M77.808304,194.182449 
	C82.209328,200.065567 82.592072,204.377396 79.250191,208.066345 
	C76.882530,207.028259 77.945419,204.959793 77.884468,203.291946 
	C77.695847,198.130783 74.001587,194.497147 68.968910,194.628784 
	C63.015469,194.784500 57.004375,200.086227 57.336761,204.888199 
	C57.661823,209.584335 61.038914,211.529678 66.184601,210.001999 
	C67.713982,207.828232 64.200027,205.661636 66.411690,203.199051 
	C69.558197,205.056946 71.481560,209.090927 70.654480,211.257233 
	C68.954071,215.710938 63.486919,215.553436 58.765583,217.867920 
	C59.522015,214.254913 57.677132,212.790756 56.155910,210.921921 
	C53.194065,207.283295 52.705566,203.032364 55.109509,198.814041 
	C59.557095,191.009644 70.055702,188.754150 77.808304,194.182449 
z"/>
<path fill="#000000" opacity="1.000000" stroke="none" 
	d="
M83.529892,232.321503 
	C79.792015,229.959290 78.855049,233.687729 76.838280,234.939636 
	C75.660431,235.670807 74.647705,237.672089 73.107765,236.228348 
	C71.197334,234.437241 73.351654,233.311829 74.417740,232.254913 
	C78.889877,227.821243 83.522926,223.547043 87.919891,219.041565 
	C90.252342,216.651535 92.034775,216.899490 94.017784,219.328903 
	C95.167313,220.737244 96.574913,221.931595 97.786156,223.293579 
	C100.309280,226.130783 101.326027,229.421814 99.530510,232.906631 
	C97.775009,236.313812 94.764481,237.854950 90.832947,237.273422 
	C89.886215,237.133408 88.924515,237.094589 88.009132,237.012741 
	C86.179924,240.430756 87.100792,244.484726 84.781952,247.507187 
	C81.862450,246.753067 82.237816,244.837631 82.505577,242.751526 
	C82.940750,239.361160 84.820587,236.140610 83.529892,232.321503 
M96.642746,228.708969 
	C95.848518,225.443741 93.438133,223.555145 90.774300,221.445206 
	C88.685127,224.090302 84.260368,225.090164 85.158783,228.907135 
	C85.731789,231.341553 88.372093,233.550323 91.518959,233.698654 
	C94.410660,233.834976 96.153969,232.323380 96.642746,228.708969 
z"/>
<path fill="#000000" opacity="1.000000" stroke="none" 
	d="
M209.231140,57.826546 
	C209.924500,59.003414 210.540848,59.838673 210.805786,60.773533 
	C211.165817,62.043892 211.488831,63.586132 209.763351,64.135002 
	C208.288925,64.604019 207.835663,63.285294 207.291443,62.246063 
	C206.757217,61.225883 206.354767,59.982029 205.515900,59.306267 
	C203.358383,57.568279 200.756729,56.192886 198.377869,58.619934 
	C195.889496,61.158726 197.965591,63.166309 199.891998,64.875099 
	C201.882355,66.640602 203.999634,68.250542 205.540802,70.481308 
	C207.355072,73.107391 207.486847,75.746353 205.720306,78.389740 
	C203.529984,81.667274 198.806274,82.719688 194.471207,80.771484 
	C190.412201,78.947350 187.535324,76.140862 187.862259,71.233162 
	C187.931808,70.188950 188.408722,69.311607 189.718658,69.231537 
	C191.434708,69.668564 191.078278,71.214607 191.367752,72.442284 
	C192.163086,75.815201 194.515945,77.392120 197.776779,77.765984 
	C199.497269,77.963257 201.180618,77.680382 202.135956,76.005394 
	C203.177368,74.179482 202.769775,72.433861 201.350052,70.990456 
	C199.717865,69.331055 197.918411,67.835037 196.302765,66.160797 
	C193.676208,63.439034 192.087692,60.219227 194.523148,56.765842 
	C196.809494,53.523907 200.256439,53.114487 203.936066,54.461884 
	C205.835342,55.157356 207.633148,55.973301 209.231140,57.826546 
z"/>
<path fill="#000000" opacity="1.000000" stroke="none" 
	d="
M125.205978,241.705048 
	C132.344345,244.359024 133.780151,246.432983 132.307770,251.532654 
	C130.503128,251.953461 130.072891,250.747742 129.629623,249.385559 
	C128.742462,246.659332 126.574089,245.560211 123.923309,245.293457 
	C122.138664,245.113876 120.589539,245.710526 119.749191,247.408157 
	C118.916573,249.090179 119.958260,250.306076 121.070587,251.337982 
	C123.020279,253.146667 125.191010,254.731430 127.033623,256.637634 
	C129.444244,259.131500 130.137619,262.201141 128.568024,265.376526 
	C126.960823,268.627991 123.965332,269.502045 120.561363,269.228333 
	C115.046692,268.784851 110.216980,264.520294 110.209892,260.092773 
	C110.207710,258.732391 110.329079,257.235962 112.083603,257.098907 
	C113.643654,256.977020 113.929878,258.304962 113.973595,259.502686 
	C114.089584,262.681244 116.070526,264.225952 118.772827,265.176605 
	C121.210274,266.034058 123.463791,265.825836 124.971336,263.522400 
	C126.558395,261.097443 124.847725,259.458771 123.239357,257.953278 
	C121.903732,256.703094 120.414230,255.618286 119.063797,254.382721 
	C116.464531,252.004517 114.506233,249.204849 116.104301,245.585556 
	C117.744530,241.870743 120.944450,240.794449 125.205978,241.705048 
z"/>
<path fill="#000000" opacity="1.000000" stroke="none" 
	d="
M202.873459,242.556107 
	C203.841064,243.499680 204.692947,244.266190 203.818268,245.306946 
	C202.890320,246.411087 201.685608,246.104263 200.655609,245.458878 
	C198.205276,243.923508 195.902176,244.325653 193.684799,245.873245 
	C192.255722,246.870667 191.151688,248.203003 191.583344,250.052414 
	C192.020538,251.925461 193.549042,252.677094 195.356689,252.665298 
	C197.844833,252.649078 200.332565,252.500015 202.819534,252.387253 
	C206.467728,252.221832 209.495834,253.301804 210.779266,257.000275 
	C212.114670,260.848511 210.404556,263.817261 207.397278,266.110138 
	C201.513077,270.596405 194.557037,269.213501 193.152039,263.338257 
	C194.531754,262.106750 195.543793,263.141693 196.641525,263.876007 
	C198.963135,265.428986 201.373276,265.189484 203.733978,264.016541 
	C205.780380,262.999756 207.472015,261.474701 207.042725,258.997375 
	C206.572815,256.285797 204.274216,256.030945 201.997162,256.060333 
	C199.339539,256.094635 196.677933,256.238403 194.025406,256.138733 
	C191.092972,256.028534 188.906326,254.561279 188.039368,251.709778 
	C187.147461,248.776199 187.692825,245.961044 190.252502,244.086655 
	C193.987366,241.351654 197.964096,239.259293 202.873459,242.556107 
z"/>
<path fill="#000000" opacity="1.000000" stroke="none" 
	d="
M245.428650,84.531441 
	C247.003479,86.589371 249.810730,87.676270 248.835510,90.940582 
	C245.490326,91.061745 244.721039,88.147972 242.959061,86.663826 
	C240.774094,84.823380 239.331924,81.770447 235.669907,85.014000 
	C231.957596,88.302132 234.736572,89.989342 236.580292,92.262802 
	C237.859680,93.840385 240.218719,94.807182 239.822998,98.103828 
	C234.892548,98.123077 233.958557,92.823914 230.234818,91.090462 
	C228.049347,92.173393 225.953354,93.594765 224.506760,96.011826 
	C226.431503,99.897186 230.598526,102.126617 231.868286,106.172119 
	C230.650650,107.728798 229.677338,107.195053 228.676254,106.431015 
	C218.295334,98.508057 218.184387,96.080788 227.757339,87.447357 
	C229.852188,85.558113 231.879242,83.593033 233.919418,81.643944 
	C238.648010,77.126457 239.032150,77.137161 243.241974,82.014877 
	C243.892685,82.768814 244.543915,83.522293 245.428650,84.531441 
z"/>
<path fill="#000000" opacity="1.000000" stroke="none" 
	d="
M119.031418,80.035309 
	C118.057816,78.260742 115.546844,77.268547 116.140747,74.716103 
	C117.957573,73.174339 118.980293,74.701912 120.108879,75.515846 
	C122.643509,77.343819 125.173973,76.834648 127.588577,75.422058 
	C129.531067,74.285667 131.104309,72.673073 130.403366,70.150726 
	C129.767548,67.862755 127.867737,67.293709 125.702568,67.301727 
	C122.878944,67.312187 120.053131,67.346321 117.232025,67.254524 
	C114.224747,67.156670 112.333878,65.515068 111.358040,62.707901 
	C110.415642,59.996933 111.363945,57.826832 113.246635,55.934925 
	C117.687340,51.472504 124.667915,51.642380 127.613045,56.311596 
	C126.522583,58.094917 125.140732,57.357002 123.758278,56.757252 
	C121.245033,55.666931 118.875771,55.966076 116.749794,57.672283 
	C115.475403,58.695049 115.048729,60.109116 115.448967,61.699100 
	C115.839348,63.249920 117.103027,63.751064 118.486076,63.794991 
	C120.973022,63.873985 123.465424,63.761192 125.954468,63.799126 
	C129.704773,63.856277 133.072784,64.879349 134.092453,68.946358 
	C135.159729,73.203194 133.224503,76.317673 129.498672,78.469772 
	C126.460228,80.224831 123.221367,80.465553 119.427002,80.021973 
	C119.002365,80.003136 119.031418,80.035309 119.031418,80.035309 
z"/>
<path fill="#000000" opacity="1.000000" stroke="none" 
	d="
M219.472473,62.660065 
	C224.650284,66.502037 230.557343,68.967346 234.524292,74.494812 
	C230.380829,76.491127 229.004288,71.968781 225.953873,72.090446 
	C220.012405,76.859360 218.103912,85.472313 210.569977,89.090309 
	C212.447052,81.241844 218.848907,76.107719 222.498184,69.023041 
	C220.909683,67.669518 219.311646,66.504570 217.958557,65.103149 
	C216.405975,63.495113 216.675537,62.431625 219.472473,62.660065 
z"/>
<path fill="#000000" opacity="1.000000" stroke="none" 
	d="
M93.607994,249.709717 
	C97.238625,244.321655 100.633804,239.212387 104.098068,234.150421 
	C104.901237,232.976837 105.812546,231.179840 107.566032,232.371811 
	C109.289360,233.543243 108.029053,235.046204 107.227509,236.260513 
	C104.305412,240.687271 101.474724,245.184906 98.332443,249.451736 
	C96.503685,251.935028 96.786728,253.327606 99.331154,255.033951 
	C101.466316,256.465820 104.644173,257.142944 105.137550,261.510101 
	C99.819649,260.403687 96.391617,257.114532 92.778831,254.362320 
	C90.978424,252.990753 92.547585,251.384354 93.607994,249.709717 
z"/>
<path fill="#000000" opacity="1.000000" stroke="none" 
	d="
M118.987816,79.987152 
	C117.144287,85.505806 111.725021,86.682846 107.502899,89.246178 
	C106.452995,89.883598 105.400665,88.587471 104.751900,87.597893 
	C100.937248,81.779305 97.143311,75.947121 93.347054,70.116486 
	C92.700897,69.124062 91.960144,68.006920 93.159042,67.031464 
	C94.601006,65.858246 95.647827,66.904343 96.412918,68.056328 
	C98.887169,71.781784 101.279144,75.561768 103.731689,79.301804 
	C107.731293,85.401039 107.736992,85.388390 113.763199,81.658287 
	C115.153633,80.797638 116.443451,79.642868 118.653290,79.966705 
	C119.031418,80.035309 119.002365,80.003136 118.987816,79.987152 
z"/>
<path fill="#000000" opacity="1.000000" stroke="none" 
	d="
M80.946869,108.116943 
	C76.188812,104.714867 71.690880,101.567314 67.261009,98.326721 
	C66.150299,97.514198 64.218994,96.694458 65.477959,94.871719 
	C66.674133,93.139885 68.176186,94.359039 69.376701,95.197823 
	C74.422379,98.723122 79.471344,102.246635 84.427299,105.895508 
	C85.768112,106.882698 88.395645,107.810913 87.075623,109.959038 
	C85.591049,112.374969 83.978127,109.747704 82.455841,109.189789 
	C82.004410,109.024338 81.637695,108.627724 80.946869,108.116943 
z"/>
<path fill="#000000" opacity="1.000000" stroke="none" 
	d="
M67.944366,222.005951 
	C73.319016,218.298645 78.374901,214.772308 83.476486,211.313370 
	C84.681091,210.496613 86.194778,209.334976 87.312218,211.255615 
	C88.247879,212.863785 86.660690,213.619431 85.609924,214.344223 
	C80.262589,218.032761 74.892006,221.687836 69.511215,225.327484 
	C68.221191,226.200058 66.674973,228.102692 65.345421,225.974045 
	C64.121742,224.014908 66.511887,223.278473 67.944366,222.005951 
z"/>
<path fill="#000000" opacity="1.000000" stroke="none" 
	d="
M148.510742,265.386688 
	C148.081070,269.009155 148.322556,272.374847 145.936737,275.134186 
	C143.252167,272.163879 145.286575,253.117889 149.075760,248.281738 
	C151.253296,254.341125 148.680145,259.654236 148.510742,265.386688 
z"/>
<path fill="#000000" opacity="1.000000" stroke="none" 
	d="
M148.127670,72.662216 
	C145.790863,65.060883 145.849747,57.420109 144.800018,49.928452 
	C144.645828,48.827999 144.723740,47.423126 146.239044,47.174328 
	C147.820877,46.914600 148.125671,48.165356 148.261444,49.364475 
	C149.060242,56.418785 149.851486,63.474022 150.612915,70.532433 
	C150.777893,72.061661 150.363190,73.195862 148.127670,72.662216 
z"/>
<path fill="#000000" opacity="1.000000" stroke="none" 
	d="
M258.057007,159.682037 
	C259.592499,158.519226 260.951202,157.628372 262.227203,156.791763 
	C266.455780,158.413406 267.981903,160.933517 265.211517,165.256256 
	C263.557800,165.256256 261.666016,165.256256 259.580139,165.256256 
	C258.698364,163.690247 258.045746,161.907684 258.057007,159.682037 
z"/>
<path fill="#000000" opacity="1.000000" stroke="none" 
	d="
M62.441948,163.002869 
	C60.841419,166.176193 58.434265,165.575638 56.601204,164.289886 
	C55.482430,163.505173 54.522381,161.394089 55.538212,159.902634 
	C56.465923,158.540558 57.934330,156.640060 59.897179,157.619370 
	C61.688019,158.512878 64.610420,159.455032 62.441948,163.002869 
z"/>
</svg>