<svg version="1.1" id="Layer_1" xmlns="http://www.w3.org/2000/svg" xmlns:xlink="http://www.w3.org/1999/xlink" x="0px" y="0px"
	 width="100%" viewBox="0 0 200 200" enable-background="new 0 0 200 200" xml:space="preserve">
<path fill="#FE4F4F" opacity="1.000000" stroke="none" 
	d="
M40.000000,1.000000 
	C93.630569,1.000000 147.261139,1.000000 200.945862,1.000000 
	C200.945862,67.585693 200.945862,134.171448 200.945862,200.878601 
	C134.333450,200.878601 67.666763,200.878601 1.000037,200.878128 
	C1.000000,171.230881 1.000000,141.584091 1.313665,111.309341 
	C4.241776,106.460350 5.711102,102.193443 3.707654,97.117973 
	C2.981124,95.277397 3.562290,92.903969 3.616455,90.775444 
	C3.720244,86.696861 4.022602,82.617027 3.953681,78.542603 
	C3.909009,75.901718 2.957978,73.248978 3.093903,70.636986 
	C3.655187,59.851093 4.492798,49.079788 5.190209,38.300625 
	C5.360640,35.666447 4.688179,32.751877 5.591974,30.428671 
	C10.458101,17.920303 19.203812,9.533480 32.389072,5.832670 
	C35.159904,5.054960 37.474937,2.653338 40.000000,1.000000 
M104.274155,111.724121 
	C104.274155,111.724121 104.314575,111.637146 104.384804,112.346260 
	C109.278793,118.132759 113.853020,118.419884 117.318390,112.941971 
	C117.318390,112.941971 117.647232,112.908867 118.160881,112.648254 
	C118.427322,112.374290 118.693764,112.100334 118.900803,111.889511 
	C118.900803,111.889511 118.837570,111.830200 119.697746,111.886284 
	C120.845985,111.867935 121.994225,111.849586 123.096313,111.903854 
	C123.096313,111.903854 123.022964,111.858864 123.443794,112.308250 
	C123.799561,112.512360 124.155319,112.716476 124.760704,112.874245 
	C124.760704,112.874245 124.947578,113.046097 125.155411,113.700134 
	C128.821625,117.778770 132.637466,117.435097 136.914413,112.963326 
	C137.894547,112.959373 138.874664,112.955421 140.450989,112.776291 
	C142.479919,109.406036 144.488388,112.531494 146.799667,112.878380 
	C146.799667,112.878380 147.002472,113.106552 147.348053,113.386871 
	C147.899704,113.335983 148.451355,113.285095 149.481400,113.082611 
	C149.646942,113.058685 149.812500,113.034752 150.667770,112.658836 
	C151.111099,109.464439 151.834076,106.279312 151.940338,103.073746 
	C152.171204,96.109589 152.650620,95.615105 160.153854,96.726761 
	C160.568985,100.930130 160.216583,105.483597 161.669907,109.360085 
	C162.723846,112.171265 166.045380,114.247688 168.660217,116.255219 
	C169.148712,116.630257 172.220825,114.969933 172.158524,114.514694 
	C171.781097,111.756935 171.349121,108.777206 169.973785,106.436684 
	C167.635468,102.457382 166.496201,99.036629 170.397781,95.388290 
	C171.181503,94.655418 171.835663,92.756897 171.432892,91.960793 
	C169.727341,88.589745 167.600510,85.431847 165.454163,81.911476 
	C164.658722,83.284966 163.843781,84.692108 162.952560,86.537514 
	C162.952560,86.537514 162.803024,86.956482 162.288330,87.354225 
	C159.843781,88.457054 157.399246,89.559883 154.316422,90.782425 
	C153.885025,90.820778 153.453613,90.859138 152.701981,90.333961 
	C151.472382,89.459816 150.081070,87.744736 149.057419,87.941589 
	C147.974625,88.149811 147.241837,90.178078 146.224319,91.215439 
	C146.224319,91.215439 146.393082,91.380630 145.692810,91.291161 
	C141.523483,92.378273 144.695404,95.326279 144.232956,97.342896 
	C143.726227,99.552521 143.730652,101.879356 143.512344,104.155106 
	C143.170364,104.036346 142.828384,103.917580 142.486404,103.798813 
	C141.597565,101.526497 140.708710,99.254189 139.623642,96.581360 
	C139.499130,96.285110 139.514938,95.996552 139.796265,94.832176 
	C141.426422,85.945717 132.480301,90.517586 130.240662,87.309708 
	C128.337570,88.157143 126.483459,88.682877 125.015556,89.743256 
	C124.058311,90.434761 123.662132,91.902985 122.997444,93.004761 
	C122.997444,93.004761 123.020798,93.011009 122.372261,92.936310 
	C120.479973,92.346443 118.587677,91.756577 116.333809,91.142136 
	C116.333809,91.142136 116.021866,90.957634 115.521309,90.385353 
	C111.916023,90.271179 107.877487,89.080826 104.814560,90.313873 
	C100.942368,91.872711 98.857147,90.953979 96.089890,88.227539 
	C98.393387,86.772110 100.315643,85.557549 103.242577,83.708206 
	C100.961227,83.296455 100.026611,83.127769 98.890236,82.445831 
	C98.588387,81.985443 98.286530,81.525063 97.369682,80.634171 
	C94.711197,79.913925 91.938087,78.867340 90.811493,83.454964 
	C90.535110,83.959061 90.258728,84.463158 89.372971,85.285187 
	C88.134460,87.626350 86.895958,89.967506 85.657455,92.308670 
	C84.434082,89.325714 84.548912,86.488037 83.780632,83.913940 
	C83.336319,82.425270 81.655464,80.810173 80.173294,80.307915 
	C79.246704,79.993919 76.527641,81.733131 76.579575,82.397194 
	C76.715225,84.131622 77.706154,85.954002 78.806503,87.398071 
	C79.432457,88.219551 80.942429,88.367432 82.535049,89.013741 
	C80.961617,89.875908 79.969574,90.419502 78.697289,91.139771 
	C78.697289,91.139771 78.366119,91.148758 77.616241,91.404549 
	C77.383720,98.337852 77.138535,105.270859 76.972763,112.205757 
	C76.967117,112.441864 77.759392,112.697044 78.605293,113.019463 
	C78.605293,113.019463 78.996529,113.203377 79.365593,113.451057 
	C79.912201,113.364342 80.458801,113.277626 81.394226,113.008606 
	C81.394226,113.008606 81.818085,112.939575 82.532486,112.625671 
	C83.018661,108.814919 83.491188,105.002357 83.996735,101.194183 
	C84.251335,99.276413 84.565880,97.366600 84.853317,95.453194 
	C85.577652,95.441582 86.301994,95.429977 87.026329,95.418365 
	C87.355858,98.102661 87.553993,100.811462 88.048843,103.464928 
	C88.640999,106.640144 89.486694,109.768082 90.631630,112.990143 
	C90.631630,112.990143 90.998039,113.186302 91.362427,113.439949 
	C91.908279,113.358383 92.454140,113.276810 93.375336,113.004570 
	C93.375336,113.004570 93.789192,112.927368 94.496414,112.625923 
	C94.994766,109.416992 95.493118,106.208069 96.662018,103.135010 
	C97.760338,103.422119 98.858665,103.709229 99.980927,104.766975 
	C100.764702,106.101639 101.548477,107.436302 102.263756,108.835724 
	C102.263756,108.835724 102.269547,108.741631 102.217987,109.453430 
	C102.933540,110.199738 103.649101,110.946053 104.274155,111.724121 
M59.269859,96.090530 
	C64.854324,92.764000 67.179047,93.978302 67.318184,100.336136 
	C67.387352,103.496803 67.195274,106.675484 67.484787,109.812469 
	C67.587791,110.928581 68.764755,111.945572 69.451469,113.007812 
	C70.065201,111.874504 71.148926,110.765121 71.208061,109.603584 
	C71.419319,105.454407 71.343918,101.286308 71.260925,97.127678 
	C71.175980,92.871521 68.855667,90.163071 64.674225,90.944496 
	C58.915653,92.020660 57.754379,89.595078 58.141937,84.642990 
	C58.223251,83.603935 56.847549,82.450859 56.143242,81.350319 
	C55.500748,82.353142 54.317673,83.346909 54.300686,84.360229 
	C54.155663,93.010780 54.137955,101.666771 54.332245,110.315514 
	C54.356483,111.394585 55.838108,112.440926 56.644451,113.502426 
	C57.071411,113.232765 57.498371,112.963097 57.925335,112.693436 
	C58.194267,107.425041 58.463200,102.156654 59.269859,96.090530 
M44.552467,87.245689 
	C45.536076,87.032211 46.519680,86.818741 47.503288,86.605263 
	C47.308464,85.879784 47.191658,84.557137 46.906914,84.519943 
	C43.553391,84.081818 39.902958,82.932808 36.892487,83.838440 
	C34.662437,84.509293 31.938385,87.856621 31.833157,90.123032 
	C31.715208,92.663383 33.869785,95.736748 35.841724,97.812263 
	C37.438717,99.493141 40.514080,99.688248 42.393986,101.209389 
	C43.698032,102.264565 45.055042,104.767433 44.637012,106.054771 
	C44.114151,107.664948 41.946651,109.413872 40.211548,109.777130 
	C38.300270,110.177277 36.088413,108.969856 33.977806,108.676201 
	C33.158920,108.562263 32.258759,109.032494 31.395620,109.236626 
	C31.778214,110.190422 31.975243,111.816704 32.575333,111.982292 
	C35.258266,112.722618 38.048492,113.378098 40.814327,113.441895 
	C44.836197,113.534660 48.059338,111.717186 49.018044,107.556175 
	C50.055630,103.052811 48.721714,99.284225 44.331070,97.094315 
	C42.249557,96.056122 39.878132,95.460663 38.047779,94.109566 
	C36.954872,93.302811 35.962463,91.290359 36.194099,90.058571 
	C36.427338,88.818245 38.064156,87.448288 39.396648,86.922516 
	C40.648235,86.428680 42.305687,86.963470 44.552467,87.245689 
z"/>
<path fill="#FF5655" opacity="1.000000" stroke="none" 
	d="
M39.531597,1.000000 
	C37.474937,2.653338 35.159904,5.054960 32.389072,5.832670 
	C19.203812,9.533480 10.458101,17.920303 5.591974,30.428671 
	C4.688179,32.751877 5.360640,35.666447 5.190209,38.300625 
	C4.492798,49.079788 3.655187,59.851093 3.093903,70.636986 
	C2.957978,73.248978 3.909009,75.901718 3.953681,78.542603 
	C4.022602,82.617027 3.720244,86.696861 3.616455,90.775444 
	C3.562290,92.903969 2.981124,95.277397 3.707654,97.117973 
	C5.711102,102.193443 4.241776,106.460350 1.313665,110.840683 
	C1.000000,80.645775 1.000000,50.291542 1.327508,19.377674 
	C7.519649,13.480359 13.396263,8.155672 19.224659,2.778721 
	C19.659771,2.377312 19.749638,1.601670 20.000000,1.000000 
	C26.354399,1.000000 32.708797,1.000000 39.531597,1.000000 
z"/>
<path fill="#FE5F5F" opacity="1.000000" stroke="none" 
	d="
M19.545889,1.000000 
	C19.749638,1.601670 19.659771,2.377312 19.224659,2.778721 
	C13.396263,8.155672 7.519649,13.480359 1.327508,18.909016 
	C1.000000,15.969407 1.000000,12.938813 1.344252,9.379110 
	C4.459002,6.233334 7.229501,3.616667 10.000000,1.000000 
	C13.030593,1.000000 16.061186,1.000000 19.545889,1.000000 
z"/>
<path fill="#FE6A6A" opacity="1.000000" stroke="none" 
	d="
M9.508951,1.000000 
	C7.229501,3.616667 4.459002,6.233334 1.344252,8.925000 
	C1.000000,6.411248 1.000000,3.822496 1.000000,1.000000 
	C3.670323,1.000000 6.344113,1.000000 9.508951,1.000000 
z"/>
<path fill="#F15D5D" opacity="1.000000" stroke="none" 
	d="
M123.142464,111.831238 
	C121.994225,111.849586 120.845985,111.867935 119.174271,111.537933 
	C117.313293,110.755997 115.990234,110.269386 114.635170,109.900246 
	C112.088043,109.206367 107.797653,109.189606 107.308395,107.804604 
	C106.137398,104.489700 105.945839,100.325165 106.872780,96.915131 
	C107.790840,93.537773 111.423950,93.813705 114.563301,94.517242 
	C118.061165,95.301117 118.548737,93.917191 116.695389,91.166710 
	C118.587677,91.756577 120.479973,92.346443 122.792511,93.356934 
	C125.094673,93.952652 127.029205,94.493134 128.848221,94.231270 
	C133.478943,93.564621 135.013123,94.574478 134.919586,98.798920 
	C121.697289,101.439171 119.857254,103.475319 123.142464,111.831238 
z"/>
<path fill="#FEE4E3" opacity="1.000000" stroke="none" 
	d="
M59.000999,96.489395 
	C58.463200,102.156654 58.194267,107.425041 57.925335,112.693436 
	C57.498371,112.963097 57.071411,113.232765 56.644451,113.502426 
	C55.838108,112.440926 54.356483,111.394585 54.332245,110.315514 
	C54.137955,101.666771 54.155663,93.010780 54.300686,84.360229 
	C54.317673,83.346909 55.500748,82.353142 56.143242,81.350319 
	C56.847549,82.450859 58.223251,83.603935 58.141937,84.642990 
	C57.754379,89.595078 58.915653,92.020660 64.674225,90.944496 
	C68.855667,90.163071 71.175980,92.871521 71.260925,97.127678 
	C71.343918,101.286308 71.419319,105.454407 71.208061,109.603584 
	C71.148926,110.765121 70.065201,111.874504 69.451469,113.007812 
	C68.764755,111.945572 67.587791,110.928581 67.484787,109.812469 
	C67.195274,106.675484 67.387352,103.496803 67.318184,100.336136 
	C67.179047,93.978302 64.854324,92.764000 59.000999,96.489395 
z"/>
<path fill="#FFEAE7" opacity="1.000000" stroke="none" 
	d="
M44.168514,87.145676 
	C42.305687,86.963470 40.648235,86.428680 39.396648,86.922516 
	C38.064156,87.448288 36.427338,88.818245 36.194099,90.058571 
	C35.962463,91.290359 36.954872,93.302811 38.047779,94.109566 
	C39.878132,95.460663 42.249557,96.056122 44.331070,97.094315 
	C48.721714,99.284225 50.055630,103.052811 49.018044,107.556175 
	C48.059338,111.717186 44.836197,113.534660 40.814327,113.441895 
	C38.048492,113.378098 35.258266,112.722618 32.575333,111.982292 
	C31.975243,111.816704 31.778214,110.190422 31.395620,109.236626 
	C32.258759,109.032494 33.158920,108.562263 33.977806,108.676201 
	C36.088413,108.969856 38.300270,110.177277 40.211548,109.777130 
	C41.946651,109.413872 44.114151,107.664948 44.637012,106.054771 
	C45.055042,104.767433 43.698032,102.264565 42.393986,101.209389 
	C40.514080,99.688248 37.438717,99.493141 35.841724,97.812263 
	C33.869785,95.736748 31.715208,92.663383 31.833157,90.123032 
	C31.938385,87.856621 34.662437,84.509293 36.892487,83.838440 
	C39.902958,82.932808 43.553391,84.081818 46.906914,84.519943 
	C47.191658,84.557137 47.308464,85.879784 47.503288,86.605263 
	C46.519680,86.818741 45.536076,87.032211 44.168514,87.145676 
z"/>
<path fill="#FEE8E7" opacity="1.000000" stroke="none" 
	d="
M123.119385,111.867546 
	C119.857254,103.475319 121.697289,101.439171 134.919586,98.798920 
	C135.013123,94.574478 133.478943,93.564621 128.848221,94.231270 
	C127.029205,94.493134 125.094673,93.952652 123.116776,93.394287 
	C123.020798,93.011009 122.997444,93.004761 123.338516,92.822388 
	C131.016968,89.211174 135.784027,90.128029 139.671066,95.715675 
	C139.514938,95.996552 139.499130,96.285110 139.605164,97.237915 
	C139.676041,102.913467 139.765411,107.932472 139.854797,112.951469 
	C138.874664,112.955421 137.894547,112.959373 136.470840,112.552963 
	C132.334030,112.443764 128.640808,112.744934 124.947578,113.046097 
	C124.947578,113.046097 124.760704,112.874245 124.455536,112.633003 
	C123.774559,112.214127 123.398766,112.036491 123.022964,111.858864 
	C123.022964,111.858864 123.096313,111.903854 123.119385,111.867546 
M126.018250,107.405548 
	C127.528214,108.245583 129.105057,109.851753 130.530823,109.727280 
	C132.225708,109.579315 134.134933,108.220100 135.253418,106.825897 
	C135.744354,106.213959 134.559509,103.060104 134.048279,103.037529 
	C130.910843,102.898987 127.244072,102.244820 126.018250,107.405548 
z"/>
<path fill="#F15D5D" opacity="1.000000" stroke="none" 
	d="
M154.954697,90.662704 
	C157.399246,89.559883 159.843781,88.457054 162.603027,87.541763 
	C161.998444,89.456993 161.079163,91.184685 160.697449,91.902084 
	C161.500275,95.187248 162.352371,97.639366 162.647049,100.156738 
	C162.973389,102.944649 162.575455,105.815399 162.877258,108.608559 
	C163.370300,113.171829 166.465256,114.409698 169.757904,112.657982 
	C168.605499,109.281296 167.008911,106.267761 166.649933,103.113373 
	C166.237396,99.488503 165.016190,95.126457 169.062759,93.631119 
	C167.931427,91.287460 167.204742,89.272346 166.027710,87.568291 
	C165.475830,86.769341 164.055557,86.570213 163.028839,86.099251 
	C163.843781,84.692108 164.658722,83.284966 165.454163,81.911476 
	C167.600510,85.431847 169.727341,88.589745 171.432892,91.960793 
	C171.835663,92.756897 171.181503,94.655418 170.397781,95.388290 
	C166.496201,99.036629 167.635468,102.457382 169.973785,106.436684 
	C171.349121,108.777206 171.781097,111.756935 172.158524,114.514694 
	C172.220825,114.969933 169.148712,116.630257 168.660217,116.255219 
	C166.045380,114.247688 162.723846,112.171265 161.669907,109.360085 
	C160.216583,105.483597 160.568985,100.930130 160.153854,96.726761 
	C152.650620,95.615105 152.171204,96.109589 151.940338,103.073746 
	C151.834076,106.279312 151.111099,109.464439 150.412079,112.372879 
	C150.199707,108.977982 150.491013,105.848106 150.230515,102.764847 
	C149.797668,97.641853 150.643356,93.670334 157.702530,93.620995 
	C156.392197,92.210304 155.673447,91.436508 154.954697,90.662704 
z"/>
<path fill="#F15D5D" opacity="1.000000" stroke="none" 
	d="
M90.222595,112.916496 
	C89.486694,109.768082 88.640999,106.640144 88.048843,103.464928 
	C87.553993,100.811462 87.355858,98.102661 87.026329,95.418365 
	C86.301994,95.429977 85.577652,95.441582 84.853317,95.453194 
	C84.565880,97.366600 84.251335,99.276413 83.996735,101.194183 
	C83.491188,105.002357 83.018661,108.814919 82.232651,112.320221 
	C81.966080,106.358665 82.199898,100.691605 81.891846,95.054153 
	C81.814651,93.641602 79.995888,92.324226 78.977531,90.963104 
	C79.969574,90.419502 80.961617,89.875908 82.535049,89.013741 
	C80.942429,88.367432 79.432457,88.219551 78.806503,87.398071 
	C77.706154,85.954002 76.715225,84.131622 76.579575,82.397194 
	C76.527641,81.733131 79.246704,79.993919 80.173294,80.307915 
	C81.655464,80.810173 83.336319,82.425270 83.780632,83.913940 
	C84.548912,86.488037 84.434082,89.325714 85.657455,92.308670 
	C86.895958,89.967506 88.134460,87.626350 89.727112,85.549316 
	C89.551498,88.208618 89.021736,90.603783 88.632095,92.365440 
	C89.172455,95.071266 89.889183,97.305603 90.013885,99.572510 
	C90.258026,104.010902 90.171974,108.467461 90.222595,112.916496 
z"/>
<path fill="#FFE5E3" opacity="1.000000" stroke="none" 
	d="
M116.514603,91.154419 
	C118.548737,93.917191 118.061165,95.301117 114.563301,94.517242 
	C111.423950,93.813705 107.790840,93.537773 106.872780,96.915131 
	C105.945839,100.325165 106.137398,104.489700 107.308395,107.804604 
	C107.797653,109.189606 112.088043,109.206367 114.635170,109.900246 
	C115.990234,110.269386 117.313293,110.755997 118.744186,111.509895 
	C118.837570,111.830200 118.900803,111.889511 118.649704,111.953720 
	C118.148148,112.314911 117.897690,112.611893 117.647232,112.908875 
	C117.647232,112.908867 117.318390,112.941971 116.787727,113.032722 
	C112.276237,112.628029 108.295403,112.132591 104.314575,111.637146 
	C104.314575,111.637146 104.274155,111.724121 104.208153,111.424355 
	C103.517952,110.330269 102.893745,109.535950 102.269547,108.741631 
	C102.269547,108.741631 102.263756,108.835724 102.240776,108.411285 
	C101.937622,105.861595 101.392365,103.732117 101.426247,101.611893 
	C101.534073,94.865440 104.768265,91.159668 110.566360,90.901878 
	C112.380447,90.821220 114.203125,90.933609 116.021866,90.957634 
	C116.021866,90.957634 116.333809,91.142136 116.514603,91.154419 
z"/>
<path fill="#FFE7E6" opacity="1.000000" stroke="none" 
	d="
M90.427109,112.953323 
	C90.171974,108.467461 90.258026,104.010902 90.013885,99.572510 
	C89.889183,97.305603 89.172455,95.071266 88.632095,92.365440 
	C89.021736,90.603783 89.551498,88.208618 90.031799,85.390358 
	C90.258728,84.463158 90.535110,83.959061 91.198303,82.997406 
	C93.718307,82.048119 95.851494,81.556396 97.984680,81.064674 
	C98.286530,81.525063 98.588387,81.985443 98.818161,82.956833 
	C95.307121,84.446831 92.545441,85.876549 94.361771,90.335541 
	C95.617889,90.984154 97.011169,91.703590 98.404449,92.423027 
	C98.753639,92.927460 99.102829,93.431885 99.452011,93.936317 
	C92.682571,93.450851 94.031487,97.433022 93.957764,100.585670 
	C93.861580,104.698631 93.841835,108.813385 93.789192,112.927368 
	C93.789192,112.927368 93.375336,113.004570 92.855270,113.050568 
	C91.889481,113.126480 91.443764,113.156395 90.998039,113.186302 
	C90.998039,113.186302 90.631630,112.990143 90.427109,112.953323 
z"/>
<path fill="#F15D5D" opacity="1.000000" stroke="none" 
	d="
M94.142807,112.776642 
	C93.841835,108.813385 93.861580,104.698631 93.957764,100.585670 
	C94.031487,97.433022 92.682571,93.450851 99.452011,93.936317 
	C99.102829,93.431885 98.753639,92.927460 98.404449,92.423027 
	C97.011169,91.703590 95.617889,90.984154 94.361771,90.335541 
	C92.545441,85.876549 95.307121,84.446831 98.919044,83.213455 
	C100.026611,83.127769 100.961227,83.296455 103.242577,83.708206 
	C100.315643,85.557549 98.393387,86.772110 96.089890,88.227539 
	C98.857147,90.953979 100.942368,91.872711 104.814560,90.313873 
	C107.877487,89.080826 111.916023,90.271179 115.771591,90.671494 
	C114.203125,90.933609 112.380447,90.821220 110.566360,90.901878 
	C104.768265,91.159668 101.534073,94.865440 101.426247,101.611893 
	C101.392365,103.732117 101.937622,105.861595 102.275024,108.378899 
	C101.548477,107.436302 100.764702,106.101639 99.979523,103.951424 
	C99.805656,100.954445 99.633186,98.773018 99.460716,96.591591 
	C98.760925,96.487511 98.061127,96.383438 97.361336,96.279358 
	C96.904716,98.519287 96.448090,100.759209 95.991470,102.999138 
	C95.493118,106.208069 94.994766,109.416992 94.142807,112.776642 
z"/>
<path fill="#FDEAEA" opacity="1.000000" stroke="none" 
	d="
M162.990692,86.318382 
	C164.055557,86.570213 165.475830,86.769341 166.027710,87.568291 
	C167.204742,89.272346 167.931427,91.287460 169.062759,93.631119 
	C165.016190,95.126457 166.237396,99.488503 166.649933,103.113373 
	C167.008911,106.267761 168.605499,109.281296 169.757904,112.657982 
	C166.465256,114.409698 163.370300,113.171829 162.877258,108.608559 
	C162.575455,105.815399 162.973389,102.944649 162.647049,100.156738 
	C162.352371,97.639366 161.500275,95.187248 160.697449,91.902084 
	C161.079163,91.184685 161.998444,89.456993 162.860382,87.342896 
	C162.803024,86.956482 162.952560,86.537514 162.990692,86.318382 
z"/>
<path fill="#FFE5E3" opacity="1.000000" stroke="none" 
	d="
M154.635559,90.722565 
	C155.673447,91.436508 156.392197,92.210304 157.702530,93.620995 
	C150.643356,93.670334 149.797668,97.641853 150.230515,102.764847 
	C150.491013,105.848106 150.199707,108.977982 150.067215,112.548859 
	C149.812500,113.034752 149.646942,113.058685 148.912491,113.094223 
	C147.896545,113.106071 147.449509,113.106316 147.002472,113.106552 
	C147.002472,113.106552 146.799667,112.878380 146.648285,112.382401 
	C146.462296,105.051163 146.427689,98.215897 146.393082,91.380630 
	C146.393082,91.380630 146.224319,91.215439 146.612396,91.279037 
	C149.025482,91.434479 151.220840,93.830681 153.022217,90.897491 
	C153.453613,90.859138 153.885025,90.820778 154.635559,90.722565 
z"/>
<path fill="#FFE6E6" opacity="1.000000" stroke="none" 
	d="
M78.837410,91.051437 
	C79.995888,92.324226 81.814651,93.641602 81.891846,95.054153 
	C82.199898,100.691605 81.966080,106.358665 81.875458,112.477173 
	C81.818085,112.939575 81.394226,113.008606 80.865723,113.052017 
	C79.890320,113.131416 79.443428,113.167397 78.996529,113.203377 
	C78.996529,113.203377 78.605293,113.019463 78.346359,112.517822 
	C78.180321,105.060379 78.273216,98.104568 78.366119,91.148758 
	C78.366119,91.148758 78.697289,91.139771 78.837410,91.051437 
z"/>
<path fill="#F15D5D" opacity="1.000000" stroke="none" 
	d="
M146.042938,91.335892 
	C146.427689,98.215897 146.462296,105.051163 146.501389,112.340897 
	C144.488388,112.531494 142.479919,109.406036 140.152893,112.863876 
	C139.765411,107.932472 139.676041,102.913467 139.703278,97.438171 
	C140.708710,99.254189 141.597565,101.526497 142.486404,103.798813 
	C142.828384,103.917580 143.170364,104.036346 143.512344,104.155106 
	C143.730652,101.879356 143.726227,99.552521 144.232956,97.342896 
	C144.695404,95.326279 141.523483,92.378273 146.042938,91.335892 
z"/>
<path fill="#F15D5D" opacity="1.000000" stroke="none" 
	d="
M139.733673,95.273926 
	C135.784027,90.128029 131.016968,89.211174 123.347092,92.831642 
	C123.662132,91.902985 124.058311,90.434761 125.015556,89.743256 
	C126.483459,88.682877 128.337570,88.157143 130.240662,87.309708 
	C132.480301,90.517586 141.426422,85.945717 139.733673,95.273926 
z"/>
<path fill="#F15D5D" opacity="1.000000" stroke="none" 
	d="
M77.991180,91.276657 
	C78.273216,98.104568 78.180321,105.060379 78.133583,112.479759 
	C77.759392,112.697044 76.967117,112.441864 76.972763,112.205757 
	C77.138535,105.270859 77.383720,98.337852 77.991180,91.276657 
z"/>
<path fill="#F15D5D" opacity="1.000000" stroke="none" 
	d="
M104.349686,111.991699 
	C108.295403,112.132591 112.276237,112.628029 116.656013,113.132523 
	C113.853020,118.419884 109.278793,118.132759 104.349686,111.991699 
z"/>
<path fill="#F15D5D" opacity="1.000000" stroke="none" 
	d="
M125.051498,113.373116 
	C128.640808,112.744934 132.334030,112.443764 136.118881,112.423531 
	C132.637466,117.435097 128.821625,117.778770 125.051498,113.373116 
z"/>
<path fill="#FE4F50" opacity="1.000000" stroke="none" 
	d="
M96.326744,103.067078 
	C96.448090,100.759209 96.904716,98.519287 97.361336,96.279358 
	C98.061127,96.383438 98.760925,96.487511 99.460716,96.591591 
	C99.633186,98.773018 99.805656,100.954445 99.967560,103.566101 
	C98.858665,103.709229 97.760338,103.422119 96.326744,103.067078 
z"/>
<path fill="#F15D5D" opacity="1.000000" stroke="none" 
	d="
M152.862091,90.615723 
	C151.220840,93.830681 149.025482,91.434479 146.678329,91.376999 
	C147.241837,90.178078 147.974625,88.149811 149.057419,87.941589 
	C150.081070,87.744736 151.472382,89.459816 152.862091,90.615723 
z"/>
<path fill="#F15D5D" opacity="1.000000" stroke="none" 
	d="
M97.677185,80.849426 
	C95.851494,81.556396 93.718307,82.048119 91.265312,82.715126 
	C91.938087,78.867340 94.711197,79.913925 97.677185,80.849426 
z"/>
<path fill="#F15D5D" opacity="1.000000" stroke="none" 
	d="
M102.243767,109.097534 
	C102.893745,109.535950 103.517952,110.330269 104.253403,111.408478 
	C103.649101,110.946053 102.933540,110.199738 102.243767,109.097534 
z"/>
<path fill="#F15D5D" opacity="1.000000" stroke="none" 
	d="
M79.181061,113.327217 
	C79.443428,113.167397 79.890320,113.131416 80.671310,113.143173 
	C80.458801,113.277626 79.912201,113.364342 79.181061,113.327217 
z"/>
<path fill="#F15D5D" opacity="1.000000" stroke="none" 
	d="
M91.180237,113.313126 
	C91.443764,113.156395 91.889481,113.126480 92.667603,113.145905 
	C92.454140,113.276810 91.908279,113.358383 91.180237,113.313126 
z"/>
<path fill="#F15D5D" opacity="1.000000" stroke="none" 
	d="
M147.175262,113.246712 
	C147.449509,113.106316 147.896545,113.106071 148.673294,113.170021 
	C148.451355,113.285095 147.899704,113.335983 147.175262,113.246712 
z"/>
<path fill="#F15D5D" opacity="1.000000" stroke="none" 
	d="
M117.904060,112.778564 
	C117.897690,112.611893 118.148148,112.314911 118.679405,111.922150 
	C118.693764,112.100334 118.427322,112.374290 117.904060,112.778564 
z"/>
<path fill="#F15D5D" opacity="1.000000" stroke="none" 
	d="
M123.233383,112.083557 
	C123.398766,112.036491 123.774559,112.214127 124.330719,112.656174 
	C124.155319,112.716476 123.799561,112.512360 123.233383,112.083557 
z"/>
<path fill="#EB5F5F" opacity="1.000000" stroke="none" 
	d="
M126.013855,107.003052 
	C127.244072,102.244820 130.910843,102.898987 134.048279,103.037529 
	C134.559509,103.060104 135.744354,106.213959 135.253418,106.825897 
	C134.134933,108.220100 132.225708,109.579315 130.530823,109.727280 
	C129.105057,109.851753 127.528214,108.245583 126.013855,107.003052 
z"/>
</svg>